<?xml version="1.0" encoding="UTF-8"?>
<svg xmlns="http://www.w3.org/2000/svg" xmlns:xlink="http://www.w3.org/1999/xlink" width="504pt" height="216pt" viewBox="0 0 504 216">
<defs>
<g>
<g id="glyph-0-0">
<path d="M 2.125 0 L 2.125 -15.84375 L 13.5625 -15.84375 L 13.5625 0 Z M 4.71875 -1.40625 L 10.890625 -1.40625 L 9.140625 -4.5625 L 7.890625 -7.015625 L 7.796875 -7.015625 L 6.5 -4.5625 Z M 7.796875 -9.296875 L 7.890625 -9.296875 L 9.0625 -11.53125 L 10.640625 -14.40625 L 5 -14.40625 L 6.59375 -11.53125 Z M 3.6875 -2.640625 L 6.75 -8.15625 L 3.6875 -13.734375 Z M 11.96875 -2.640625 L 11.96875 -13.734375 L 8.9375 -8.15625 Z M 11.96875 -2.640625 "/>
</g>
<g id="glyph-0-1">
<path d="M 2.15625 0 L 2.15625 -15.75 L 4.15625 -15.75 L 4.15625 -9.15625 L 11.484375 -9.15625 L 11.484375 -15.75 L 13.5 -15.75 L 13.5 0 L 11.484375 0 L 11.484375 -7.40625 L 4.15625 -7.40625 L 4.15625 0 Z M 2.15625 0 "/>
</g>
<g id="glyph-0-2">
<path d="M 4.65625 0.28125 C 4.007812 0.28125 3.425781 0.148438 2.90625 -0.109375 C 2.382812 -0.367188 1.972656 -0.742188 1.671875 -1.234375 C 1.378906 -1.734375 1.234375 -2.332031 1.234375 -3.03125 C 1.234375 -4.34375 1.804688 -5.332031 2.953125 -6 C 4.109375 -6.675781 5.929688 -7.148438 8.421875 -7.421875 C 8.410156 -7.898438 8.335938 -8.359375 8.203125 -8.796875 C 8.066406 -9.242188 7.820312 -9.601562 7.46875 -9.875 C 7.125 -10.15625 6.632812 -10.296875 6 -10.296875 C 5.332031 -10.296875 4.703125 -10.171875 4.109375 -9.921875 C 3.515625 -9.671875 2.984375 -9.394531 2.515625 -9.09375 L 1.75 -10.453125 C 2.101562 -10.691406 2.519531 -10.925781 3 -11.15625 C 3.476562 -11.382812 4 -11.570312 4.5625 -11.71875 C 5.125 -11.875 5.71875 -11.953125 6.34375 -11.953125 C 7.28125 -11.953125 8.046875 -11.753906 8.640625 -11.359375 C 9.242188 -10.960938 9.6875 -10.40625 9.96875 -9.6875 C 10.25 -8.96875 10.390625 -8.117188 10.390625 -7.140625 L 10.390625 0 L 8.75 0 L 8.59375 -1.390625 L 8.515625 -1.390625 C 7.953125 -0.929688 7.347656 -0.535156 6.703125 -0.203125 C 6.066406 0.117188 5.382812 0.28125 4.65625 0.28125 Z M 5.21875 -1.359375 C 5.78125 -1.359375 6.3125 -1.484375 6.8125 -1.734375 C 7.320312 -1.984375 7.859375 -2.359375 8.421875 -2.859375 L 8.421875 -6 C 7.109375 -5.84375 6.070312 -5.632812 5.3125 -5.375 C 4.550781 -5.125 4.003906 -4.816406 3.671875 -4.453125 C 3.347656 -4.085938 3.1875 -3.65625 3.1875 -3.15625 C 3.1875 -2.507812 3.382812 -2.046875 3.78125 -1.765625 C 4.175781 -1.492188 4.65625 -1.359375 5.21875 -1.359375 Z M 5.21875 -1.359375 "/>
</g>
<g id="glyph-0-3">
<path d="M 1.96875 4.921875 L 1.96875 -11.671875 L 3.59375 -11.671875 L 3.765625 -10.3125 L 3.828125 -10.3125 C 4.359375 -10.757812 4.941406 -11.144531 5.578125 -11.46875 C 6.222656 -11.789062 6.878906 -11.953125 7.546875 -11.953125 C 8.554688 -11.953125 9.398438 -11.707031 10.078125 -11.21875 C 10.765625 -10.726562 11.285156 -10.035156 11.640625 -9.140625 C 11.992188 -8.253906 12.171875 -7.210938 12.171875 -6.015625 C 12.171875 -4.679688 11.929688 -3.546875 11.453125 -2.609375 C 10.984375 -1.671875 10.363281 -0.953125 9.59375 -0.453125 C 8.832031 0.0351562 8.007812 0.28125 7.125 0.28125 C 6.59375 0.28125 6.050781 0.164062 5.5 -0.0625 C 4.957031 -0.300781 4.421875 -0.632812 3.890625 -1.0625 L 3.9375 0.96875 L 3.9375 4.921875 Z M 6.78125 -1.375 C 7.425781 -1.375 8 -1.554688 8.5 -1.921875 C 9.007812 -2.296875 9.410156 -2.828125 9.703125 -3.515625 C 9.992188 -4.203125 10.140625 -5.03125 10.140625 -6 C 10.140625 -6.851562 10.035156 -7.601562 9.828125 -8.25 C 9.617188 -8.894531 9.285156 -9.394531 8.828125 -9.75 C 8.378906 -10.113281 7.789062 -10.296875 7.0625 -10.296875 C 6.570312 -10.296875 6.070312 -10.160156 5.5625 -9.890625 C 5.0625 -9.628906 4.519531 -9.234375 3.9375 -8.703125 L 3.9375 -2.59375 C 4.476562 -2.144531 4.992188 -1.828125 5.484375 -1.640625 C 5.972656 -1.460938 6.40625 -1.375 6.78125 -1.375 Z M 6.78125 -1.375 "/>
</g>
<g id="glyph-0-4">
<path d="M 2.171875 5.03125 C 1.898438 5.03125 1.648438 5.003906 1.421875 4.953125 C 1.191406 4.910156 0.984375 4.847656 0.796875 4.765625 L 1.21875 3.234375 C 1.363281 3.273438 1.507812 3.3125 1.65625 3.34375 C 1.800781 3.375 1.941406 3.390625 2.078125 3.390625 C 2.734375 3.390625 3.273438 3.148438 3.703125 2.671875 C 4.140625 2.191406 4.472656 1.597656 4.703125 0.890625 L 4.96875 0.015625 L 0.28125 -11.671875 L 2.328125 -11.671875 L 4.703125 -5.203125 C 4.890625 -4.703125 5.078125 -4.164062 5.265625 -3.59375 C 5.460938 -3.019531 5.65625 -2.460938 5.84375 -1.921875 L 5.9375 -1.921875 C 6.101562 -2.453125 6.269531 -3.003906 6.4375 -3.578125 C 6.601562 -4.148438 6.765625 -4.691406 6.921875 -5.203125 L 9 -11.671875 L 10.9375 -11.671875 L 6.53125 0.953125 C 6.257812 1.722656 5.929688 2.414062 5.546875 3.03125 C 5.171875 3.644531 4.707031 4.128906 4.15625 4.484375 C 3.613281 4.847656 2.953125 5.03125 2.171875 5.03125 Z M 2.171875 5.03125 "/>
</g>
<g id="glyph-0-5">
<path d="M 7.75 0.28125 C 6.9375 0.28125 6.1875 0.164062 5.5 -0.0625 C 4.820312 -0.289062 4.226562 -0.664062 3.71875 -1.1875 C 3.207031 -1.707031 2.804688 -2.394531 2.515625 -3.25 C 2.234375 -4.113281 2.09375 -5.171875 2.09375 -6.421875 L 2.09375 -15.75 L 4.09375 -15.75 L 4.09375 -6.359375 C 4.09375 -5.117188 4.253906 -4.144531 4.578125 -3.4375 C 4.898438 -2.726562 5.335938 -2.222656 5.890625 -1.921875 C 6.441406 -1.628906 7.0625 -1.484375 7.75 -1.484375 C 8.4375 -1.484375 9.0625 -1.628906 9.625 -1.921875 C 10.195312 -2.222656 10.648438 -2.726562 10.984375 -3.4375 C 11.316406 -4.144531 11.484375 -5.117188 11.484375 -6.359375 L 11.484375 -15.75 L 13.40625 -15.75 L 13.40625 -6.421875 C 13.40625 -5.171875 13.257812 -4.113281 12.96875 -3.25 C 12.6875 -2.394531 12.285156 -1.707031 11.765625 -1.1875 C 11.253906 -0.664062 10.65625 -0.289062 9.96875 -0.0625 C 9.289062 0.164062 8.550781 0.28125 7.75 0.28125 Z M 7.75 0.28125 "/>
</g>
<g id="glyph-0-6">
<path d="M 1.96875 0 L 1.96875 -11.671875 L 3.59375 -11.671875 L 3.765625 -9.984375 L 3.828125 -9.984375 C 4.390625 -10.535156 4.984375 -11 5.609375 -11.375 C 6.234375 -11.757812 6.945312 -11.953125 7.75 -11.953125 C 8.976562 -11.953125 9.878906 -11.5625 10.453125 -10.78125 C 11.023438 -10.007812 11.3125 -8.878906 11.3125 -7.390625 L 11.3125 0 L 9.328125 0 L 9.328125 -7.140625 C 9.328125 -8.234375 9.15625 -9.019531 8.8125 -9.5 C 8.46875 -9.988281 7.90625 -10.234375 7.125 -10.234375 C 6.53125 -10.234375 6 -10.082031 5.53125 -9.78125 C 5.0625 -9.476562 4.53125 -9.035156 3.9375 -8.453125 L 3.9375 0 Z M 1.96875 0 "/>
</g>
<g id="glyph-0-7">
<path d="M 1.96875 0 L 1.96875 -17.09375 L 3.9375 -17.09375 L 3.9375 -12.421875 L 3.875 -10.03125 C 4.414062 -10.550781 4.992188 -11 5.609375 -11.375 C 6.234375 -11.757812 6.945312 -11.953125 7.75 -11.953125 C 8.976562 -11.953125 9.878906 -11.5625 10.453125 -10.78125 C 11.023438 -10.007812 11.3125 -8.878906 11.3125 -7.390625 L 11.3125 0 L 9.328125 0 L 9.328125 -7.140625 C 9.328125 -8.234375 9.15625 -9.019531 8.8125 -9.5 C 8.46875 -9.988281 7.90625 -10.234375 7.125 -10.234375 C 6.53125 -10.234375 6 -10.082031 5.53125 -9.78125 C 5.0625 -9.476562 4.53125 -9.035156 3.9375 -8.453125 L 3.9375 0 Z M 1.96875 0 "/>
</g>
<g id="glyph-0-8">
<path d="M 5.421875 0 L 5.421875 -14.046875 L 0.65625 -14.046875 L 0.65625 -15.75 L 12.203125 -15.75 L 12.203125 -14.046875 L 7.4375 -14.046875 L 7.4375 0 Z M 5.421875 0 "/>
</g>
<g id="glyph-0-9">
<path d="M 6.703125 0.28125 C 5.648438 0.28125 4.695312 0.0390625 3.84375 -0.4375 C 3 -0.925781 2.328125 -1.625 1.828125 -2.53125 C 1.335938 -3.445312 1.09375 -4.546875 1.09375 -5.828125 C 1.09375 -7.097656 1.34375 -8.1875 1.84375 -9.09375 C 2.351562 -10.007812 3.007812 -10.710938 3.8125 -11.203125 C 4.613281 -11.703125 5.460938 -11.953125 6.359375 -11.953125 C 7.359375 -11.953125 8.203125 -11.722656 8.890625 -11.265625 C 9.585938 -10.816406 10.113281 -10.179688 10.46875 -9.359375 C 10.820312 -8.546875 11 -7.585938 11 -6.484375 C 11 -6.285156 10.988281 -6.085938 10.96875 -5.890625 C 10.957031 -5.691406 10.929688 -5.492188 10.890625 -5.296875 L 2.5 -5.296875 L 2.5 -6.859375 L 9.21875 -6.859375 C 9.21875 -7.984375 8.972656 -8.847656 8.484375 -9.453125 C 7.992188 -10.054688 7.296875 -10.359375 6.390625 -10.359375 C 5.847656 -10.359375 5.320312 -10.207031 4.8125 -9.90625 C 4.3125 -9.601562 3.894531 -9.125 3.5625 -8.46875 C 3.226562 -7.8125 3.0625 -6.9375 3.0625 -5.84375 C 3.0625 -4.851562 3.234375 -4.023438 3.578125 -3.359375 C 3.929688 -2.691406 4.398438 -2.1875 4.984375 -1.84375 C 5.578125 -1.5 6.222656 -1.328125 6.921875 -1.328125 C 7.492188 -1.328125 8.019531 -1.40625 8.5 -1.5625 C 8.988281 -1.71875 9.429688 -1.929688 9.828125 -2.203125 L 10.546875 -0.90625 C 10.046875 -0.5625 9.476562 -0.273438 8.84375 -0.046875 C 8.207031 0.171875 7.492188 0.28125 6.703125 0.28125 Z M 6.703125 0.28125 "/>
</g>
<g id="glyph-0-10">
<path d="M 6.515625 0.28125 C 5.554688 0.28125 4.664062 0.0390625 3.84375 -0.4375 C 3.019531 -0.914062 2.359375 -1.609375 1.859375 -2.515625 C 1.359375 -3.429688 1.109375 -4.53125 1.109375 -5.8125 C 1.109375 -7.113281 1.359375 -8.222656 1.859375 -9.140625 C 2.359375 -10.054688 3.019531 -10.753906 3.84375 -11.234375 C 4.664062 -11.710938 5.554688 -11.953125 6.515625 -11.953125 C 7.460938 -11.953125 8.34375 -11.710938 9.15625 -11.234375 C 9.976562 -10.753906 10.640625 -10.054688 11.140625 -9.140625 C 11.648438 -8.222656 11.90625 -7.113281 11.90625 -5.8125 C 11.90625 -4.53125 11.648438 -3.429688 11.140625 -2.515625 C 10.640625 -1.609375 9.976562 -0.914062 9.15625 -0.4375 C 8.34375 0.0390625 7.460938 0.28125 6.515625 0.28125 Z M 6.515625 -1.359375 C 7.179688 -1.359375 7.765625 -1.539062 8.265625 -1.90625 C 8.773438 -2.28125 9.171875 -2.800781 9.453125 -3.46875 C 9.734375 -4.144531 9.875 -4.925781 9.875 -5.8125 C 9.875 -6.707031 9.734375 -7.492188 9.453125 -8.171875 C 9.171875 -8.847656 8.773438 -9.375 8.265625 -9.75 C 7.765625 -10.125 7.179688 -10.3125 6.515625 -10.3125 C 5.835938 -10.3125 5.25 -10.125 4.75 -9.75 C 4.25 -9.375 3.851562 -8.847656 3.5625 -8.171875 C 3.28125 -7.492188 3.140625 -6.707031 3.140625 -5.8125 C 3.140625 -4.925781 3.28125 -4.144531 3.5625 -3.46875 C 3.851562 -2.800781 4.25 -2.28125 4.75 -1.90625 C 5.25 -1.539062 5.835938 -1.359375 6.515625 -1.359375 Z M 6.515625 -1.359375 "/>
</g>
<g id="glyph-0-11">
<path d="M 1.96875 0 L 1.96875 -11.671875 L 3.59375 -11.671875 L 3.765625 -9.546875 L 3.828125 -9.546875 C 4.222656 -10.285156 4.707031 -10.867188 5.28125 -11.296875 C 5.851562 -11.734375 6.476562 -11.953125 7.15625 -11.953125 C 7.40625 -11.953125 7.628906 -11.929688 7.828125 -11.890625 C 8.023438 -11.859375 8.210938 -11.800781 8.390625 -11.71875 L 7.953125 -10.03125 C 7.785156 -10.082031 7.625 -10.117188 7.46875 -10.140625 C 7.320312 -10.160156 7.128906 -10.171875 6.890625 -10.171875 C 6.398438 -10.171875 5.882812 -9.972656 5.34375 -9.578125 C 4.8125 -9.179688 4.34375 -8.484375 3.9375 -7.484375 L 3.9375 0 Z M 1.96875 0 "/>
</g>
<g id="glyph-0-12">
<path d="M 5.640625 0.21875 C 4.398438 0.21875 3.535156 -0.140625 3.046875 -0.859375 C 2.554688 -1.585938 2.3125 -2.523438 2.3125 -3.671875 L 2.3125 -10.0625 L 0.578125 -10.0625 L 0.578125 -11.546875 L 2.390625 -11.65625 L 2.640625 -15.421875 L 4.296875 -15.421875 L 4.296875 -11.65625 L 7.453125 -11.65625 L 7.453125 -10.0625 L 4.296875 -10.0625 L 4.296875 -3.640625 C 4.296875 -2.929688 4.425781 -2.378906 4.6875 -1.984375 C 4.957031 -1.585938 5.425781 -1.390625 6.09375 -1.390625 C 6.300781 -1.390625 6.515625 -1.410156 6.734375 -1.453125 C 6.960938 -1.492188 7.191406 -1.570312 7.421875 -1.6875 L 7.84375 -0.296875 C 7.53125 -0.140625 7.1875 -0.0117188 6.8125 0.078125 C 6.4375 0.171875 6.046875 0.21875 5.640625 0.21875 Z M 5.640625 0.21875 "/>
</g>
<g id="glyph-0-13">
<path d="M 1.96875 0 L 1.96875 -11.65625 L 3.9375 -11.65625 L 3.9375 0 Z M 2.953125 -14.0625 C 2.578125 -14.0625 2.265625 -14.179688 2.015625 -14.421875 C 1.765625 -14.660156 1.640625 -14.976562 1.640625 -15.375 C 1.640625 -15.75 1.765625 -16.050781 2.015625 -16.28125 C 2.265625 -16.519531 2.578125 -16.640625 2.953125 -16.640625 C 3.335938 -16.640625 3.648438 -16.519531 3.890625 -16.28125 C 4.140625 -16.050781 4.265625 -15.75 4.265625 -15.375 C 4.265625 -14.976562 4.140625 -14.660156 3.890625 -14.421875 C 3.648438 -14.179688 3.335938 -14.0625 2.953125 -14.0625 Z M 2.953125 -14.0625 "/>
</g>
<g id="glyph-0-14">
<path d="M 6.609375 0.28125 C 5.566406 0.28125 4.628906 0.0390625 3.796875 -0.4375 C 2.960938 -0.914062 2.304688 -1.609375 1.828125 -2.515625 C 1.347656 -3.429688 1.109375 -4.53125 1.109375 -5.8125 C 1.109375 -7.113281 1.363281 -8.21875 1.875 -9.125 C 2.394531 -10.039062 3.082031 -10.738281 3.9375 -11.21875 C 4.789062 -11.707031 5.71875 -11.953125 6.71875 -11.953125 C 7.488281 -11.953125 8.148438 -11.820312 8.703125 -11.5625 C 9.253906 -11.300781 9.726562 -10.972656 10.125 -10.578125 L 9.15625 -9.359375 C 8.863281 -9.648438 8.519531 -9.878906 8.125 -10.046875 C 7.738281 -10.222656 7.296875 -10.3125 6.796875 -10.3125 C 6.097656 -10.3125 5.472656 -10.117188 4.921875 -9.734375 C 4.378906 -9.359375 3.945312 -8.832031 3.625 -8.15625 C 3.300781 -7.488281 3.140625 -6.707031 3.140625 -5.8125 C 3.140625 -4.925781 3.289062 -4.148438 3.59375 -3.484375 C 3.90625 -2.816406 4.332031 -2.296875 4.875 -1.921875 C 5.414062 -1.546875 6.046875 -1.359375 6.765625 -1.359375 C 7.304688 -1.359375 7.804688 -1.457031 8.265625 -1.65625 C 8.734375 -1.863281 9.140625 -2.128906 9.484375 -2.453125 L 10.34375 -1.234375 C 9.851562 -0.773438 9.289062 -0.40625 8.65625 -0.125 C 8.03125 0.144531 7.347656 0.28125 6.609375 0.28125 Z M 6.609375 0.28125 "/>
</g>
<g id="glyph-0-15">
<path d="M 4.0625 0.21875 C 3.5625 0.21875 3.15625 0.117188 2.84375 -0.078125 C 2.539062 -0.285156 2.316406 -0.582031 2.171875 -0.96875 C 2.035156 -1.363281 1.96875 -1.84375 1.96875 -2.40625 L 1.96875 -17.09375 L 3.9375 -17.09375 L 3.9375 -2.265625 C 3.9375 -1.941406 3.992188 -1.71875 4.109375 -1.59375 C 4.222656 -1.476562 4.363281 -1.421875 4.53125 -1.421875 C 4.582031 -1.421875 4.632812 -1.425781 4.6875 -1.4375 C 4.75 -1.445312 4.828125 -1.457031 4.921875 -1.46875 L 5.203125 0.015625 C 5.066406 0.078125 4.898438 0.125 4.703125 0.15625 C 4.515625 0.195312 4.300781 0.21875 4.0625 0.21875 Z M 4.0625 0.21875 "/>
</g>
<g id="glyph-0-16">
</g>
<g id="glyph-0-17">
<path d="M 9.375 4.921875 L 9.375 0.78125 L 9.453125 -1.34375 C 8.992188 -0.894531 8.460938 -0.507812 7.859375 -0.1875 C 7.265625 0.121094 6.625 0.28125 5.9375 0.28125 C 4.476562 0.28125 3.3125 -0.25 2.4375 -1.3125 C 1.570312 -2.382812 1.140625 -3.882812 1.140625 -5.8125 C 1.140625 -7.070312 1.375 -8.160156 1.84375 -9.078125 C 2.3125 -9.992188 2.929688 -10.703125 3.703125 -11.203125 C 4.472656 -11.703125 5.300781 -11.953125 6.1875 -11.953125 C 6.863281 -11.953125 7.457031 -11.832031 7.96875 -11.59375 C 8.488281 -11.363281 9.003906 -11.019531 9.515625 -10.5625 L 9.578125 -10.5625 L 9.765625 -11.671875 L 11.34375 -11.671875 L 11.34375 4.921875 Z M 6.375 -1.375 C 6.914062 -1.375 7.429688 -1.503906 7.921875 -1.765625 C 8.410156 -2.035156 8.894531 -2.4375 9.375 -2.96875 L 9.375 -9.078125 C 8.875 -9.523438 8.394531 -9.835938 7.9375 -10.015625 C 7.476562 -10.203125 7.007812 -10.296875 6.53125 -10.296875 C 5.90625 -10.296875 5.335938 -10.109375 4.828125 -9.734375 C 4.328125 -9.367188 3.925781 -8.847656 3.625 -8.171875 C 3.320312 -7.503906 3.171875 -6.722656 3.171875 -5.828125 C 3.171875 -4.441406 3.445312 -3.351562 4 -2.5625 C 4.5625 -1.769531 5.351562 -1.375 6.375 -1.375 Z M 6.375 -1.375 "/>
</g>
<g id="glyph-0-18">
<path d="M 5.375 0.28125 C 4.144531 0.28125 3.242188 -0.101562 2.671875 -0.875 C 2.097656 -1.65625 1.8125 -2.785156 1.8125 -4.265625 L 1.8125 -11.65625 L 3.796875 -11.65625 L 3.796875 -4.53125 C 3.796875 -3.445312 3.96875 -2.65625 4.3125 -2.15625 C 4.65625 -1.664062 5.210938 -1.421875 5.984375 -1.421875 C 6.578125 -1.421875 7.109375 -1.578125 7.578125 -1.890625 C 8.046875 -2.203125 8.554688 -2.703125 9.109375 -3.390625 L 9.109375 -11.65625 L 11.078125 -11.65625 L 11.078125 0 L 9.453125 0 L 9.28125 -1.828125 L 9.21875 -1.828125 C 8.6875 -1.191406 8.113281 -0.679688 7.5 -0.296875 C 6.882812 0.0859375 6.175781 0.28125 5.375 0.28125 Z M 5.375 0.28125 "/>
</g>
<g id="glyph-0-19">
<path d="M 5.03125 0.28125 C 4.164062 0.28125 3.351562 0.132812 2.59375 -0.15625 C 1.84375 -0.457031 1.203125 -0.867188 0.671875 -1.390625 L 1.578125 -2.53125 C 2.085938 -2.125 2.617188 -1.804688 3.171875 -1.578125 C 3.722656 -1.359375 4.363281 -1.25 5.09375 -1.25 C 5.851562 -1.25 6.425781 -1.425781 6.8125 -1.78125 C 7.195312 -2.144531 7.390625 -2.570312 7.390625 -3.0625 C 7.390625 -3.457031 7.257812 -3.785156 7 -4.046875 C 6.738281 -4.316406 6.410156 -4.546875 6.015625 -4.734375 C 5.617188 -4.921875 5.195312 -5.09375 4.75 -5.25 C 4.164062 -5.457031 3.613281 -5.703125 3.09375 -5.984375 C 2.570312 -6.273438 2.144531 -6.628906 1.8125 -7.046875 C 1.476562 -7.472656 1.3125 -8.003906 1.3125 -8.640625 C 1.3125 -9.578125 1.664062 -10.363281 2.375 -11 C 3.09375 -11.632812 4.082031 -11.953125 5.34375 -11.953125 C 6.070312 -11.953125 6.742188 -11.828125 7.359375 -11.578125 C 7.984375 -11.335938 8.519531 -11.023438 8.96875 -10.640625 L 8.0625 -9.484375 C 7.65625 -9.773438 7.234375 -10.003906 6.796875 -10.171875 C 6.367188 -10.335938 5.890625 -10.421875 5.359375 -10.421875 C 4.628906 -10.421875 4.085938 -10.25 3.734375 -9.90625 C 3.390625 -9.5625 3.21875 -9.175781 3.21875 -8.75 C 3.21875 -8.382812 3.320312 -8.082031 3.53125 -7.84375 C 3.738281 -7.613281 4.03125 -7.414062 4.40625 -7.25 C 4.78125 -7.082031 5.207031 -6.910156 5.6875 -6.734375 C 6.300781 -6.515625 6.878906 -6.265625 7.421875 -5.984375 C 7.972656 -5.710938 8.421875 -5.351562 8.765625 -4.90625 C 9.109375 -4.46875 9.28125 -3.894531 9.28125 -3.1875 C 9.28125 -2.550781 9.117188 -1.96875 8.796875 -1.4375 C 8.472656 -0.914062 7.992188 -0.5 7.359375 -0.1875 C 6.722656 0.121094 5.945312 0.28125 5.03125 0.28125 Z M 5.03125 0.28125 "/>
</g>
<g id="glyph-1-0">
<path d="M 1.859375 0 L 1.859375 -13.859375 L 11.859375 -13.859375 L 11.859375 0 Z M 4.125 -1.21875 L 9.53125 -1.21875 L 8 -4 L 6.90625 -6.140625 L 6.8125 -6.140625 L 5.6875 -4 Z M 6.8125 -8.140625 L 6.90625 -8.140625 L 7.9375 -10.09375 L 9.3125 -12.609375 L 4.375 -12.609375 L 5.765625 -10.09375 Z M 3.21875 -2.3125 L 5.90625 -7.140625 L 3.21875 -12.03125 Z M 10.46875 -2.3125 L 10.46875 -12.03125 L 7.8125 -7.140625 Z M 10.46875 -2.3125 "/>
</g>
<g id="glyph-1-1">
<path d="M 0.875 -4.609375 L 0.875 -5.9375 L 5.6875 -5.9375 L 5.6875 -4.609375 Z M 0.875 -4.609375 "/>
</g>
<g id="glyph-1-2">
<path d="M 0.828125 0 L 0.828125 -1.0625 C 2.171875 -2.363281 3.3125 -3.523438 4.25 -4.546875 C 5.1875 -5.566406 5.898438 -6.488281 6.390625 -7.3125 C 6.890625 -8.132812 7.140625 -8.90625 7.140625 -9.625 C 7.140625 -10.394531 6.929688 -11.019531 6.515625 -11.5 C 6.097656 -11.988281 5.457031 -12.234375 4.59375 -12.234375 C 4.039062 -12.234375 3.523438 -12.078125 3.046875 -11.765625 C 2.566406 -11.460938 2.132812 -11.085938 1.75 -10.640625 L 0.78125 -11.578125 C 1.332031 -12.203125 1.925781 -12.703125 2.5625 -13.078125 C 3.195312 -13.453125 3.945312 -13.640625 4.8125 -13.640625 C 5.632812 -13.640625 6.347656 -13.476562 6.953125 -13.15625 C 7.554688 -12.832031 8.019531 -12.375 8.34375 -11.78125 C 8.664062 -11.195312 8.828125 -10.507812 8.828125 -9.71875 C 8.828125 -8.851562 8.582031 -7.992188 8.09375 -7.140625 C 7.613281 -6.285156 6.953125 -5.390625 6.109375 -4.453125 C 5.265625 -3.515625 4.300781 -2.488281 3.21875 -1.375 C 3.570312 -1.40625 3.945312 -1.429688 4.34375 -1.453125 C 4.738281 -1.472656 5.113281 -1.484375 5.46875 -1.484375 L 9.484375 -1.484375 L 9.484375 0 Z M 0.828125 0 "/>
</g>
<g id="glyph-1-3">
<path d="M 1.65625 0 L 1.65625 -1.4375 L 4.71875 -1.4375 L 4.71875 -11.296875 L 2.28125 -11.296875 L 2.28125 -12.40625 C 2.894531 -12.519531 3.429688 -12.65625 3.890625 -12.8125 C 4.347656 -12.976562 4.757812 -13.171875 5.125 -13.390625 L 6.453125 -13.390625 L 6.453125 -1.4375 L 9.21875 -1.4375 L 9.21875 0 Z M 1.65625 0 "/>
</g>
<g id="glyph-1-4">
<path d="M 5.21875 0.25 C 3.882812 0.25 2.832031 -0.351562 2.0625 -1.5625 C 1.300781 -2.769531 0.921875 -4.5 0.921875 -6.75 C 0.921875 -8.988281 1.300781 -10.695312 2.0625 -11.875 C 2.832031 -13.050781 3.882812 -13.640625 5.21875 -13.640625 C 6.550781 -13.640625 7.597656 -13.050781 8.359375 -11.875 C 9.128906 -10.695312 9.515625 -8.988281 9.515625 -6.75 C 9.515625 -4.5 9.128906 -2.769531 8.359375 -1.5625 C 7.597656 -0.351562 6.550781 0.25 5.21875 0.25 Z M 5.21875 -1.140625 C 5.738281 -1.140625 6.191406 -1.332031 6.578125 -1.71875 C 6.972656 -2.101562 7.28125 -2.707031 7.5 -3.53125 C 7.71875 -4.363281 7.828125 -5.4375 7.828125 -6.75 C 7.828125 -8.050781 7.71875 -9.109375 7.5 -9.921875 C 7.28125 -10.734375 6.972656 -11.320312 6.578125 -11.6875 C 6.191406 -12.0625 5.738281 -12.25 5.21875 -12.25 C 4.695312 -12.25 4.238281 -12.0625 3.84375 -11.6875 C 3.457031 -11.320312 3.15625 -10.734375 2.9375 -9.921875 C 2.71875 -9.109375 2.609375 -8.050781 2.609375 -6.75 C 2.609375 -5.4375 2.71875 -4.363281 2.9375 -3.53125 C 3.15625 -2.707031 3.457031 -2.101562 3.84375 -1.71875 C 4.238281 -1.332031 4.695312 -1.140625 5.21875 -1.140625 Z M 5.21875 -1.140625 "/>
</g>
<g id="glyph-1-5">
<path d="M 2.609375 0.25 C 2.273438 0.25 1.984375 0.128906 1.734375 -0.109375 C 1.484375 -0.359375 1.359375 -0.675781 1.359375 -1.0625 C 1.359375 -1.457031 1.484375 -1.773438 1.734375 -2.015625 C 1.984375 -2.265625 2.273438 -2.390625 2.609375 -2.390625 C 2.960938 -2.390625 3.257812 -2.265625 3.5 -2.015625 C 3.75 -1.773438 3.875 -1.457031 3.875 -1.0625 C 3.875 -0.675781 3.75 -0.359375 3.5 -0.109375 C 3.257812 0.128906 2.960938 0.25 2.609375 0.25 Z M 2.609375 0.25 "/>
</g>
<g id="glyph-1-6">
<path d="M 4.953125 0.25 C 4.234375 0.25 3.597656 0.160156 3.046875 -0.015625 C 2.503906 -0.203125 2.023438 -0.4375 1.609375 -0.71875 C 1.203125 -1 0.847656 -1.304688 0.546875 -1.640625 L 1.421875 -2.765625 C 1.828125 -2.347656 2.300781 -1.976562 2.84375 -1.65625 C 3.382812 -1.34375 4.050781 -1.1875 4.84375 -1.1875 C 5.65625 -1.1875 6.320312 -1.40625 6.84375 -1.84375 C 7.363281 -2.289062 7.625 -2.890625 7.625 -3.640625 C 7.625 -4.171875 7.488281 -4.632812 7.21875 -5.03125 C 6.945312 -5.425781 6.5 -5.734375 5.875 -5.953125 C 5.25 -6.179688 4.40625 -6.296875 3.34375 -6.296875 L 3.34375 -7.625 C 4.289062 -7.625 5.039062 -7.734375 5.59375 -7.953125 C 6.144531 -8.179688 6.539062 -8.484375 6.78125 -8.859375 C 7.03125 -9.234375 7.15625 -9.65625 7.15625 -10.125 C 7.15625 -10.769531 6.945312 -11.28125 6.53125 -11.65625 C 6.113281 -12.039062 5.546875 -12.234375 4.828125 -12.234375 C 4.273438 -12.234375 3.757812 -12.109375 3.28125 -11.859375 C 2.800781 -11.609375 2.367188 -11.28125 1.984375 -10.875 L 1.046875 -11.984375 C 1.578125 -12.460938 2.15625 -12.859375 2.78125 -13.171875 C 3.40625 -13.484375 4.109375 -13.640625 4.890625 -13.640625 C 5.671875 -13.640625 6.359375 -13.503906 6.953125 -13.234375 C 7.554688 -12.972656 8.03125 -12.585938 8.375 -12.078125 C 8.726562 -11.578125 8.90625 -10.96875 8.90625 -10.25 C 8.90625 -9.445312 8.679688 -8.78125 8.234375 -8.25 C 7.785156 -7.726562 7.195312 -7.332031 6.46875 -7.0625 L 6.46875 -6.984375 C 7.007812 -6.847656 7.5 -6.628906 7.9375 -6.328125 C 8.375 -6.035156 8.722656 -5.65625 8.984375 -5.1875 C 9.242188 -4.726562 9.375 -4.191406 9.375 -3.578125 C 9.375 -2.773438 9.175781 -2.085938 8.78125 -1.515625 C 8.382812 -0.953125 7.851562 -0.515625 7.1875 -0.203125 C 6.519531 0.0976562 5.773438 0.25 4.953125 0.25 Z M 4.953125 0.25 "/>
</g>
<g id="glyph-1-7">
<path d="M 6.375 0 L 6.375 -8.96875 C 6.375 -9.320312 6.382812 -9.75 6.40625 -10.25 C 6.4375 -10.757812 6.460938 -11.191406 6.484375 -11.546875 L 6.390625 -11.546875 C 6.222656 -11.234375 6.046875 -10.921875 5.859375 -10.609375 C 5.679688 -10.304688 5.5 -9.988281 5.3125 -9.65625 L 2.171875 -5.078125 L 9.84375 -5.078125 L 9.84375 -3.703125 L 0.359375 -3.703125 L 0.359375 -4.84375 L 6.09375 -13.390625 L 8.015625 -13.390625 L 8.015625 0 Z M 6.375 0 "/>
</g>
<g id="glyph-2-0">
<path d="M 0 -2.125 L -15.84375 -2.125 L -15.84375 -13.5625 L 0 -13.5625 Z M -1.40625 -4.71875 L -1.40625 -10.890625 L -4.5625 -9.140625 L -7.015625 -7.890625 L -7.015625 -7.796875 L -4.5625 -6.5 Z M -9.296875 -7.796875 L -9.296875 -7.890625 L -11.53125 -9.0625 L -14.40625 -10.640625 L -14.40625 -5 L -11.53125 -6.59375 Z M -2.640625 -3.6875 L -8.15625 -6.75 L -13.734375 -3.6875 Z M -2.640625 -11.96875 L -13.734375 -11.96875 L -8.15625 -8.9375 Z M -2.640625 -11.96875 "/>
</g>
<g id="glyph-2-1">
<path d="M 0.28125 -6.515625 C 0.28125 -5.398438 0.0703125 -4.378906 -0.34375 -3.453125 C -0.757812 -2.523438 -1.332031 -1.710938 -2.0625 -1.015625 L -3.34375 -2.140625 C -2.769531 -2.703125 -2.3125 -3.367188 -1.96875 -4.140625 C -1.632812 -4.910156 -1.46875 -5.71875 -1.46875 -6.5625 C -1.46875 -7.59375 -1.703125 -8.394531 -2.171875 -8.96875 C -2.648438 -9.550781 -3.269531 -9.84375 -4.03125 -9.84375 C -4.570312 -9.84375 -5.003906 -9.722656 -5.328125 -9.484375 C -5.648438 -9.253906 -5.921875 -8.941406 -6.140625 -8.546875 C -6.367188 -8.160156 -6.59375 -7.71875 -6.8125 -7.21875 L -7.796875 -4.953125 C -8.015625 -4.453125 -8.296875 -3.957031 -8.640625 -3.46875 C -8.984375 -2.976562 -9.414062 -2.570312 -9.9375 -2.25 C -10.457031 -1.925781 -11.097656 -1.765625 -11.859375 -1.765625 C -12.660156 -1.765625 -13.375 -1.976562 -14 -2.40625 C -14.632812 -2.832031 -15.132812 -3.414062 -15.5 -4.15625 C -15.863281 -4.90625 -16.046875 -5.765625 -16.046875 -6.734375 C -16.046875 -7.679688 -15.863281 -8.550781 -15.5 -9.34375 C -15.144531 -10.144531 -14.6875 -10.816406 -14.125 -11.359375 L -12.84375 -10.296875 C -13.28125 -9.796875 -13.628906 -9.25 -13.890625 -8.65625 C -14.148438 -8.0625 -14.28125 -7.421875 -14.28125 -6.734375 C -14.28125 -5.847656 -14.070312 -5.132812 -13.65625 -4.59375 C -13.238281 -4.0625 -12.679688 -3.796875 -11.984375 -3.796875 C -11.472656 -3.796875 -11.054688 -3.925781 -10.734375 -4.1875 C -10.421875 -4.445312 -10.160156 -4.78125 -9.953125 -5.1875 C -9.742188 -5.59375 -9.550781 -5.992188 -9.375 -6.390625 L -8.40625 -8.640625 C -8.132812 -9.265625 -7.820312 -9.820312 -7.46875 -10.3125 C -7.113281 -10.800781 -6.671875 -11.1875 -6.140625 -11.46875 C -5.617188 -11.75 -4.96875 -11.890625 -4.1875 -11.890625 C -3.351562 -11.890625 -2.597656 -11.675781 -1.921875 -11.25 C -1.242188 -10.820312 -0.707031 -10.203125 -0.3125 -9.390625 C 0.0820312 -8.585938 0.28125 -7.628906 0.28125 -6.515625 Z M 0.28125 -6.515625 "/>
</g>
<g id="glyph-2-2">
<path d="M 0.28125 -4.65625 C 0.28125 -4.007812 0.148438 -3.425781 -0.109375 -2.90625 C -0.367188 -2.382812 -0.742188 -1.972656 -1.234375 -1.671875 C -1.734375 -1.378906 -2.332031 -1.234375 -3.03125 -1.234375 C -4.34375 -1.234375 -5.332031 -1.804688 -6 -2.953125 C -6.675781 -4.109375 -7.148438 -5.929688 -7.421875 -8.421875 C -7.898438 -8.410156 -8.359375 -8.335938 -8.796875 -8.203125 C -9.242188 -8.066406 -9.601562 -7.820312 -9.875 -7.46875 C -10.15625 -7.125 -10.296875 -6.632812 -10.296875 -6 C -10.296875 -5.332031 -10.171875 -4.703125 -9.921875 -4.109375 C -9.671875 -3.515625 -9.394531 -2.984375 -9.09375 -2.515625 L -10.453125 -1.75 C -10.691406 -2.101562 -10.925781 -2.519531 -11.15625 -3 C -11.382812 -3.476562 -11.570312 -4 -11.71875 -4.5625 C -11.875 -5.125 -11.953125 -5.71875 -11.953125 -6.34375 C -11.953125 -7.28125 -11.753906 -8.046875 -11.359375 -8.640625 C -10.960938 -9.242188 -10.40625 -9.6875 -9.6875 -9.96875 C -8.96875 -10.25 -8.117188 -10.390625 -7.140625 -10.390625 L 0 -10.390625 L 0 -8.75 L -1.390625 -8.59375 L -1.390625 -8.515625 C -0.929688 -7.953125 -0.535156 -7.347656 -0.203125 -6.703125 C 0.117188 -6.066406 0.28125 -5.382812 0.28125 -4.65625 Z M -1.359375 -5.21875 C -1.359375 -5.78125 -1.484375 -6.3125 -1.734375 -6.8125 C -1.984375 -7.320312 -2.359375 -7.859375 -2.859375 -8.421875 L -6 -8.421875 C -5.84375 -7.109375 -5.632812 -6.070312 -5.375 -5.3125 C -5.125 -4.550781 -4.816406 -4.003906 -4.453125 -3.671875 C -4.085938 -3.347656 -3.65625 -3.1875 -3.15625 -3.1875 C -2.507812 -3.1875 -2.046875 -3.382812 -1.765625 -3.78125 C -1.492188 -4.175781 -1.359375 -4.65625 -1.359375 -5.21875 Z M -1.359375 -5.21875 "/>
</g>
<g id="glyph-2-3">
<path d="M 0 -1.96875 L -11.671875 -1.96875 L -11.671875 -3.59375 L -9.96875 -3.765625 L -9.96875 -3.828125 C -10.53125 -4.335938 -11 -4.894531 -11.375 -5.5 C -11.757812 -6.113281 -11.953125 -6.769531 -11.953125 -7.46875 C -11.953125 -8.363281 -11.753906 -9.0625 -11.359375 -9.5625 C -10.960938 -10.070312 -10.421875 -10.445312 -9.734375 -10.6875 C -10.398438 -11.289062 -10.9375 -11.90625 -11.34375 -12.53125 C -11.75 -13.15625 -11.953125 -13.820312 -11.953125 -14.53125 C -11.953125 -15.738281 -11.5625 -16.628906 -10.78125 -17.203125 C -10.007812 -17.785156 -8.878906 -18.078125 -7.390625 -18.078125 L 0 -18.078125 L 0 -16.109375 L -7.140625 -16.109375 C -8.234375 -16.109375 -9.019531 -15.929688 -9.5 -15.578125 C -9.988281 -15.234375 -10.234375 -14.6875 -10.234375 -13.9375 C -10.234375 -13.476562 -10.085938 -13.007812 -9.796875 -12.53125 C -9.503906 -12.0625 -9.054688 -11.554688 -8.453125 -11.015625 L 0 -11.015625 L 0 -9.03125 L -7.140625 -9.03125 C -8.234375 -9.03125 -9.019531 -8.851562 -9.5 -8.5 C -9.988281 -8.15625 -10.234375 -7.609375 -10.234375 -6.859375 C -10.234375 -5.984375 -9.640625 -5.007812 -8.453125 -3.9375 L 0 -3.9375 Z M 0 -1.96875 "/>
</g>
<g id="glyph-2-4">
<path d="M 4.921875 -1.96875 L -11.671875 -1.96875 L -11.671875 -3.59375 L -10.3125 -3.765625 L -10.3125 -3.828125 C -10.757812 -4.359375 -11.144531 -4.941406 -11.46875 -5.578125 C -11.789062 -6.222656 -11.953125 -6.878906 -11.953125 -7.546875 C -11.953125 -8.554688 -11.707031 -9.398438 -11.21875 -10.078125 C -10.726562 -10.765625 -10.035156 -11.285156 -9.140625 -11.640625 C -8.253906 -11.992188 -7.210938 -12.171875 -6.015625 -12.171875 C -4.679688 -12.171875 -3.546875 -11.929688 -2.609375 -11.453125 C -1.671875 -10.984375 -0.953125 -10.363281 -0.453125 -9.59375 C 0.0351562 -8.832031 0.28125 -8.007812 0.28125 -7.125 C 0.28125 -6.59375 0.164062 -6.050781 -0.0625 -5.5 C -0.300781 -4.957031 -0.632812 -4.421875 -1.0625 -3.890625 L 0.96875 -3.9375 L 4.921875 -3.9375 Z M -1.375 -6.78125 C -1.375 -7.425781 -1.554688 -8 -1.921875 -8.5 C -2.296875 -9.007812 -2.828125 -9.410156 -3.515625 -9.703125 C -4.203125 -9.992188 -5.03125 -10.140625 -6 -10.140625 C -6.851562 -10.140625 -7.601562 -10.035156 -8.25 -9.828125 C -8.894531 -9.617188 -9.394531 -9.285156 -9.75 -8.828125 C -10.113281 -8.378906 -10.296875 -7.789062 -10.296875 -7.0625 C -10.296875 -6.570312 -10.160156 -6.070312 -9.890625 -5.5625 C -9.628906 -5.0625 -9.234375 -4.519531 -8.703125 -3.9375 L -2.59375 -3.9375 C -2.144531 -4.476562 -1.828125 -4.992188 -1.640625 -5.484375 C -1.460938 -5.972656 -1.375 -6.40625 -1.375 -6.78125 Z M -1.375 -6.78125 "/>
</g>
<g id="glyph-2-5">
<path d="M 0.21875 -4.0625 C 0.21875 -3.5625 0.117188 -3.15625 -0.078125 -2.84375 C -0.285156 -2.539062 -0.582031 -2.316406 -0.96875 -2.171875 C -1.363281 -2.035156 -1.84375 -1.96875 -2.40625 -1.96875 L -17.09375 -1.96875 L -17.09375 -3.9375 L -2.265625 -3.9375 C -1.941406 -3.9375 -1.71875 -3.992188 -1.59375 -4.109375 C -1.476562 -4.222656 -1.421875 -4.363281 -1.421875 -4.53125 C -1.421875 -4.582031 -1.425781 -4.632812 -1.4375 -4.6875 C -1.445312 -4.75 -1.457031 -4.828125 -1.46875 -4.921875 L 0.015625 -5.203125 C 0.078125 -5.066406 0.125 -4.898438 0.15625 -4.703125 C 0.195312 -4.515625 0.21875 -4.300781 0.21875 -4.0625 Z M 0.21875 -4.0625 "/>
</g>
<g id="glyph-2-6">
<path d="M 0.28125 -6.703125 C 0.28125 -5.648438 0.0390625 -4.695312 -0.4375 -3.84375 C -0.925781 -3 -1.625 -2.328125 -2.53125 -1.828125 C -3.445312 -1.335938 -4.546875 -1.09375 -5.828125 -1.09375 C -7.097656 -1.09375 -8.1875 -1.34375 -9.09375 -1.84375 C -10.007812 -2.351562 -10.710938 -3.007812 -11.203125 -3.8125 C -11.703125 -4.613281 -11.953125 -5.460938 -11.953125 -6.359375 C -11.953125 -7.359375 -11.722656 -8.203125 -11.265625 -8.890625 C -10.816406 -9.585938 -10.179688 -10.113281 -9.359375 -10.46875 C -8.546875 -10.820312 -7.585938 -11 -6.484375 -11 C -6.285156 -11 -6.085938 -10.988281 -5.890625 -10.96875 C -5.691406 -10.957031 -5.492188 -10.929688 -5.296875 -10.890625 L -5.296875 -2.5 L -6.859375 -2.5 L -6.859375 -9.21875 C -7.984375 -9.21875 -8.847656 -8.972656 -9.453125 -8.484375 C -10.054688 -7.992188 -10.359375 -7.296875 -10.359375 -6.390625 C -10.359375 -5.847656 -10.207031 -5.320312 -9.90625 -4.8125 C -9.601562 -4.3125 -9.125 -3.894531 -8.46875 -3.5625 C -7.8125 -3.226562 -6.9375 -3.0625 -5.84375 -3.0625 C -4.851562 -3.0625 -4.023438 -3.234375 -3.359375 -3.578125 C -2.691406 -3.929688 -2.1875 -4.398438 -1.84375 -4.984375 C -1.5 -5.578125 -1.328125 -6.222656 -1.328125 -6.921875 C -1.328125 -7.492188 -1.40625 -8.019531 -1.5625 -8.5 C -1.71875 -8.988281 -1.929688 -9.429688 -2.203125 -9.828125 L -0.90625 -10.546875 C -0.5625 -10.046875 -0.273438 -9.476562 -0.046875 -8.84375 C 0.171875 -8.207031 0.28125 -7.492188 0.28125 -6.703125 Z M 0.28125 -6.703125 "/>
</g>
<g id="glyph-2-7">
</g>
<g id="glyph-2-8">
<path d="M 4.921875 -9.375 L 0.78125 -9.375 L -1.34375 -9.453125 C -0.894531 -8.992188 -0.507812 -8.460938 -0.1875 -7.859375 C 0.121094 -7.265625 0.28125 -6.625 0.28125 -5.9375 C 0.28125 -4.476562 -0.25 -3.3125 -1.3125 -2.4375 C -2.382812 -1.570312 -3.882812 -1.140625 -5.8125 -1.140625 C -7.070312 -1.140625 -8.160156 -1.375 -9.078125 -1.84375 C -9.992188 -2.3125 -10.703125 -2.929688 -11.203125 -3.703125 C -11.703125 -4.472656 -11.953125 -5.300781 -11.953125 -6.1875 C -11.953125 -6.863281 -11.832031 -7.457031 -11.59375 -7.96875 C -11.363281 -8.488281 -11.019531 -9.003906 -10.5625 -9.515625 L -10.5625 -9.578125 L -11.671875 -9.765625 L -11.671875 -11.34375 L 4.921875 -11.34375 Z M -1.375 -6.375 C -1.375 -6.914062 -1.503906 -7.429688 -1.765625 -7.921875 C -2.035156 -8.410156 -2.4375 -8.894531 -2.96875 -9.375 L -9.078125 -9.375 C -9.523438 -8.875 -9.835938 -8.394531 -10.015625 -7.9375 C -10.203125 -7.476562 -10.296875 -7.007812 -10.296875 -6.53125 C -10.296875 -5.90625 -10.109375 -5.335938 -9.734375 -4.828125 C -9.367188 -4.328125 -8.847656 -3.925781 -8.171875 -3.625 C -7.503906 -3.320312 -6.722656 -3.171875 -5.828125 -3.171875 C -4.441406 -3.171875 -3.351562 -3.445312 -2.5625 -4 C -1.769531 -4.5625 -1.375 -5.351562 -1.375 -6.375 Z M -1.375 -6.375 "/>
</g>
<g id="glyph-2-9">
<path d="M 0.28125 -5.375 C 0.28125 -4.144531 -0.101562 -3.242188 -0.875 -2.671875 C -1.65625 -2.097656 -2.785156 -1.8125 -4.265625 -1.8125 L -11.65625 -1.8125 L -11.65625 -3.796875 L -4.53125 -3.796875 C -3.445312 -3.796875 -2.65625 -3.96875 -2.15625 -4.3125 C -1.664062 -4.65625 -1.421875 -5.210938 -1.421875 -5.984375 C -1.421875 -6.578125 -1.578125 -7.109375 -1.890625 -7.578125 C -2.203125 -8.046875 -2.703125 -8.554688 -3.390625 -9.109375 L -11.65625 -9.109375 L -11.65625 -11.078125 L 0 -11.078125 L 0 -9.453125 L -1.828125 -9.28125 L -1.828125 -9.21875 C -1.191406 -8.6875 -0.679688 -8.113281 -0.296875 -7.5 C 0.0859375 -6.882812 0.28125 -6.175781 0.28125 -5.375 Z M 0.28125 -5.375 "/>
</g>
<g id="glyph-2-10">
<path d="M 0 -1.96875 L -11.671875 -1.96875 L -11.671875 -3.59375 L -9.984375 -3.765625 L -9.984375 -3.828125 C -10.535156 -4.390625 -11 -4.984375 -11.375 -5.609375 C -11.757812 -6.234375 -11.953125 -6.945312 -11.953125 -7.75 C -11.953125 -8.976562 -11.5625 -9.878906 -10.78125 -10.453125 C -10.007812 -11.023438 -8.878906 -11.3125 -7.390625 -11.3125 L 0 -11.3125 L 0 -9.328125 L -7.140625 -9.328125 C -8.234375 -9.328125 -9.019531 -9.15625 -9.5 -8.8125 C -9.988281 -8.46875 -10.234375 -7.90625 -10.234375 -7.125 C -10.234375 -6.53125 -10.082031 -6 -9.78125 -5.53125 C -9.476562 -5.0625 -9.035156 -4.53125 -8.453125 -3.9375 L 0 -3.9375 Z M 0 -1.96875 "/>
</g>
<g id="glyph-2-11">
<path d="M 0.21875 -5.640625 C 0.21875 -4.398438 -0.140625 -3.535156 -0.859375 -3.046875 C -1.585938 -2.554688 -2.523438 -2.3125 -3.671875 -2.3125 L -10.0625 -2.3125 L -10.0625 -0.578125 L -11.546875 -0.578125 L -11.65625 -2.390625 L -15.421875 -2.640625 L -15.421875 -4.296875 L -11.65625 -4.296875 L -11.65625 -7.453125 L -10.0625 -7.453125 L -10.0625 -4.296875 L -3.640625 -4.296875 C -2.929688 -4.296875 -2.378906 -4.425781 -1.984375 -4.6875 C -1.585938 -4.957031 -1.390625 -5.425781 -1.390625 -6.09375 C -1.390625 -6.300781 -1.410156 -6.515625 -1.453125 -6.734375 C -1.492188 -6.960938 -1.570312 -7.191406 -1.6875 -7.421875 L -0.296875 -7.84375 C -0.140625 -7.53125 -0.0117188 -7.1875 0.078125 -6.8125 C 0.171875 -6.4375 0.21875 -6.046875 0.21875 -5.640625 Z M 0.21875 -5.640625 "/>
</g>
<g id="glyph-2-12">
<path d="M 0 -1.96875 L -11.65625 -1.96875 L -11.65625 -3.9375 L 0 -3.9375 Z M -14.0625 -2.953125 C -14.0625 -2.578125 -14.179688 -2.265625 -14.421875 -2.015625 C -14.660156 -1.765625 -14.976562 -1.640625 -15.375 -1.640625 C -15.75 -1.640625 -16.050781 -1.765625 -16.28125 -2.015625 C -16.519531 -2.265625 -16.640625 -2.578125 -16.640625 -2.953125 C -16.640625 -3.335938 -16.519531 -3.648438 -16.28125 -3.890625 C -16.050781 -4.140625 -15.75 -4.265625 -15.375 -4.265625 C -14.976562 -4.265625 -14.660156 -4.140625 -14.421875 -3.890625 C -14.179688 -3.648438 -14.0625 -3.335938 -14.0625 -2.953125 Z M -14.0625 -2.953125 "/>
</g>
<g id="glyph-2-13">
<path d="M 0.28125 -5.03125 C 0.28125 -4.164062 0.132812 -3.351562 -0.15625 -2.59375 C -0.457031 -1.84375 -0.867188 -1.203125 -1.390625 -0.671875 L -2.53125 -1.578125 C -2.125 -2.085938 -1.804688 -2.617188 -1.578125 -3.171875 C -1.359375 -3.722656 -1.25 -4.363281 -1.25 -5.09375 C -1.25 -5.851562 -1.425781 -6.425781 -1.78125 -6.8125 C -2.144531 -7.195312 -2.570312 -7.390625 -3.0625 -7.390625 C -3.457031 -7.390625 -3.785156 -7.257812 -4.046875 -7 C -4.316406 -6.738281 -4.546875 -6.410156 -4.734375 -6.015625 C -4.921875 -5.617188 -5.09375 -5.195312 -5.25 -4.75 C -5.457031 -4.164062 -5.703125 -3.613281 -5.984375 -3.09375 C -6.273438 -2.570312 -6.628906 -2.144531 -7.046875 -1.8125 C -7.472656 -1.476562 -8.003906 -1.3125 -8.640625 -1.3125 C -9.578125 -1.3125 -10.363281 -1.664062 -11 -2.375 C -11.632812 -3.09375 -11.953125 -4.082031 -11.953125 -5.34375 C -11.953125 -6.070312 -11.828125 -6.742188 -11.578125 -7.359375 C -11.335938 -7.984375 -11.023438 -8.519531 -10.640625 -8.96875 L -9.484375 -8.0625 C -9.773438 -7.65625 -10.003906 -7.234375 -10.171875 -6.796875 C -10.335938 -6.367188 -10.421875 -5.890625 -10.421875 -5.359375 C -10.421875 -4.628906 -10.25 -4.085938 -9.90625 -3.734375 C -9.5625 -3.390625 -9.175781 -3.21875 -8.75 -3.21875 C -8.382812 -3.21875 -8.082031 -3.320312 -7.84375 -3.53125 C -7.613281 -3.738281 -7.414062 -4.03125 -7.25 -4.40625 C -7.082031 -4.78125 -6.910156 -5.207031 -6.734375 -5.6875 C -6.515625 -6.300781 -6.265625 -6.878906 -5.984375 -7.421875 C -5.710938 -7.972656 -5.351562 -8.421875 -4.90625 -8.765625 C -4.46875 -9.109375 -3.894531 -9.28125 -3.1875 -9.28125 C -2.550781 -9.28125 -1.96875 -9.117188 -1.4375 -8.796875 C -0.914062 -8.472656 -0.5 -7.992188 -0.1875 -7.359375 C 0.121094 -6.722656 0.28125 -5.945312 0.28125 -5.03125 Z M 0.28125 -5.03125 "/>
</g>
</g>
<clipPath id="clip-0">
<path clip-rule="nonzero" d="M 60.152344 36.246094 L 276.597656 36.246094 L 276.597656 161.847656 L 60.152344 161.847656 Z M 60.152344 36.246094 "/>
</clipPath>
<clipPath id="clip-1">
<path clip-rule="nonzero" d="M 60.152344 147 L 276.597656 147 L 276.597656 149 L 60.152344 149 Z M 60.152344 147 "/>
</clipPath>
<clipPath id="clip-2">
<path clip-rule="nonzero" d="M 60.152344 122 L 276.597656 122 L 276.597656 124 L 60.152344 124 Z M 60.152344 122 "/>
</clipPath>
<clipPath id="clip-3">
<path clip-rule="nonzero" d="M 60.152344 97 L 276.597656 97 L 276.597656 99 L 60.152344 99 Z M 60.152344 97 "/>
</clipPath>
<clipPath id="clip-4">
<path clip-rule="nonzero" d="M 60.152344 72 L 276.597656 72 L 276.597656 74 L 60.152344 74 Z M 60.152344 72 "/>
</clipPath>
<clipPath id="clip-5">
<path clip-rule="nonzero" d="M 60.152344 47 L 276.597656 47 L 276.597656 50 L 60.152344 50 Z M 60.152344 47 "/>
</clipPath>
<clipPath id="clip-6">
<path clip-rule="nonzero" d="M 67 36.246094 L 69 36.246094 L 69 161.847656 L 67 161.847656 Z M 67 36.246094 "/>
</clipPath>
<clipPath id="clip-7">
<path clip-rule="nonzero" d="M 117 36.246094 L 119 36.246094 L 119 161.847656 L 117 161.847656 Z M 117 36.246094 "/>
</clipPath>
<clipPath id="clip-8">
<path clip-rule="nonzero" d="M 167 36.246094 L 169 36.246094 L 169 161.847656 L 167 161.847656 Z M 167 36.246094 "/>
</clipPath>
<clipPath id="clip-9">
<path clip-rule="nonzero" d="M 218 36.246094 L 220 36.246094 L 220 161.847656 L 218 161.847656 Z M 218 36.246094 "/>
</clipPath>
<clipPath id="clip-10">
<path clip-rule="nonzero" d="M 268 36.246094 L 270 36.246094 L 270 161.847656 L 268 161.847656 Z M 268 36.246094 "/>
</clipPath>
<clipPath id="clip-11">
<path clip-rule="nonzero" d="M 60.152344 36.246094 L 276.597656 36.246094 L 276.597656 161.847656 L 60.152344 161.847656 Z M 60.152344 36.246094 "/>
</clipPath>
<clipPath id="clip-12">
<path clip-rule="nonzero" d="M 282.074219 36.246094 L 498.519531 36.246094 L 498.519531 161.847656 L 282.074219 161.847656 Z M 282.074219 36.246094 "/>
</clipPath>
<clipPath id="clip-13">
<path clip-rule="nonzero" d="M 282.074219 147 L 498.519531 147 L 498.519531 149 L 282.074219 149 Z M 282.074219 147 "/>
</clipPath>
<clipPath id="clip-14">
<path clip-rule="nonzero" d="M 282.074219 122 L 498.519531 122 L 498.519531 124 L 282.074219 124 Z M 282.074219 122 "/>
</clipPath>
<clipPath id="clip-15">
<path clip-rule="nonzero" d="M 282.074219 97 L 498.519531 97 L 498.519531 99 L 282.074219 99 Z M 282.074219 97 "/>
</clipPath>
<clipPath id="clip-16">
<path clip-rule="nonzero" d="M 282.074219 72 L 498.519531 72 L 498.519531 74 L 282.074219 74 Z M 282.074219 72 "/>
</clipPath>
<clipPath id="clip-17">
<path clip-rule="nonzero" d="M 282.074219 47 L 498.519531 47 L 498.519531 50 L 282.074219 50 Z M 282.074219 47 "/>
</clipPath>
<clipPath id="clip-18">
<path clip-rule="nonzero" d="M 289 36.246094 L 291 36.246094 L 291 161.847656 L 289 161.847656 Z M 289 36.246094 "/>
</clipPath>
<clipPath id="clip-19">
<path clip-rule="nonzero" d="M 339 36.246094 L 341 36.246094 L 341 161.847656 L 339 161.847656 Z M 339 36.246094 "/>
</clipPath>
<clipPath id="clip-20">
<path clip-rule="nonzero" d="M 389 36.246094 L 391 36.246094 L 391 161.847656 L 389 161.847656 Z M 389 36.246094 "/>
</clipPath>
<clipPath id="clip-21">
<path clip-rule="nonzero" d="M 439 36.246094 L 442 36.246094 L 442 161.847656 L 439 161.847656 Z M 439 36.246094 "/>
</clipPath>
<clipPath id="clip-22">
<path clip-rule="nonzero" d="M 490 36.246094 L 492 36.246094 L 492 161.847656 L 490 161.847656 Z M 490 36.246094 "/>
</clipPath>
<clipPath id="clip-23">
<path clip-rule="nonzero" d="M 282.074219 36.246094 L 498.519531 36.246094 L 498.519531 161.847656 L 282.074219 161.847656 Z M 282.074219 36.246094 "/>
</clipPath>
</defs>
<rect x="-50.4" y="-21.6" width="604.8" height="259.2" fill="rgb(100%, 100%, 100%)" fill-opacity="1"/>
<path fill="none" stroke-width="1.066978" stroke-linecap="round" stroke-linejoin="round" stroke="rgb(100%, 100%, 100%)" stroke-opacity="1" stroke-miterlimit="10" d="M 0 216 L 504 216 L 504 0 L 0 0 Z M 0 216 "/>
<g clip-path="url(#clip-0)">
<path fill-rule="nonzero" fill="rgb(100%, 100%, 100%)" fill-opacity="1" stroke-width="1.066978" stroke-linecap="round" stroke-linejoin="round" stroke="rgb(100%, 100%, 100%)" stroke-opacity="1" stroke-miterlimit="10" d="M 60.152344 161.847656 L 276.597656 161.847656 L 276.597656 36.246094 L 60.152344 36.246094 Z M 60.152344 161.847656 "/>
</g>
<g clip-path="url(#clip-1)">
<path fill="none" stroke-width="1.066978" stroke-linecap="butt" stroke-linejoin="round" stroke="rgb(80%, 80%, 80%)" stroke-opacity="1" stroke-miterlimit="10" d="M 60.152344 148.25 L 276.597656 148.25 "/>
</g>
<g clip-path="url(#clip-2)">
<path fill="none" stroke-width="1.066978" stroke-linecap="butt" stroke-linejoin="round" stroke="rgb(80%, 80%, 80%)" stroke-opacity="1" stroke-miterlimit="10" d="M 60.152344 123.316406 L 276.597656 123.316406 "/>
</g>
<g clip-path="url(#clip-3)">
<path fill="none" stroke-width="1.066978" stroke-linecap="butt" stroke-linejoin="round" stroke="rgb(80%, 80%, 80%)" stroke-opacity="1" stroke-miterlimit="10" d="M 60.152344 98.386719 L 276.597656 98.386719 "/>
</g>
<g clip-path="url(#clip-4)">
<path fill="none" stroke-width="1.066978" stroke-linecap="butt" stroke-linejoin="round" stroke="rgb(80%, 80%, 80%)" stroke-opacity="1" stroke-miterlimit="10" d="M 60.152344 73.453125 L 276.597656 73.453125 "/>
</g>
<g clip-path="url(#clip-5)">
<path fill="none" stroke-width="1.066978" stroke-linecap="butt" stroke-linejoin="round" stroke="rgb(80%, 80%, 80%)" stroke-opacity="1" stroke-miterlimit="10" d="M 60.152344 48.519531 L 276.597656 48.519531 "/>
</g>
<g clip-path="url(#clip-6)">
<path fill="none" stroke-width="1.066978" stroke-linecap="butt" stroke-linejoin="round" stroke="rgb(80%, 80%, 80%)" stroke-opacity="1" stroke-miterlimit="10" d="M 67.980469 161.847656 L 67.980469 36.246094 "/>
</g>
<g clip-path="url(#clip-7)">
<path fill="none" stroke-width="1.066978" stroke-linecap="butt" stroke-linejoin="round" stroke="rgb(80%, 80%, 80%)" stroke-opacity="1" stroke-miterlimit="10" d="M 118.175781 161.847656 L 118.175781 36.246094 "/>
</g>
<g clip-path="url(#clip-8)">
<path fill="none" stroke-width="1.066978" stroke-linecap="butt" stroke-linejoin="round" stroke="rgb(80%, 80%, 80%)" stroke-opacity="1" stroke-miterlimit="10" d="M 168.375 161.847656 L 168.375 36.246094 "/>
</g>
<g clip-path="url(#clip-9)">
<path fill="none" stroke-width="1.066978" stroke-linecap="butt" stroke-linejoin="round" stroke="rgb(80%, 80%, 80%)" stroke-opacity="1" stroke-miterlimit="10" d="M 218.570312 161.847656 L 218.570312 36.246094 "/>
</g>
<g clip-path="url(#clip-10)">
<path fill="none" stroke-width="1.066978" stroke-linecap="butt" stroke-linejoin="round" stroke="rgb(80%, 80%, 80%)" stroke-opacity="1" stroke-miterlimit="10" d="M 268.765625 161.847656 L 268.765625 36.246094 "/>
</g>
<path fill-rule="nonzero" fill="rgb(0%, 0%, 0%)" fill-opacity="1" stroke-width="0.708661" stroke-linecap="round" stroke-linejoin="round" stroke="rgb(0%, 0%, 0%)" stroke-opacity="1" stroke-miterlimit="10" d="M 73.050781 139.457031 C 73.050781 142.0625 69.140625 142.0625 69.140625 139.457031 C 69.140625 136.851562 73.050781 136.851562 73.050781 139.457031 "/>
<path fill-rule="nonzero" fill="rgb(0%, 0%, 0%)" fill-opacity="1" stroke-width="0.708661" stroke-linecap="round" stroke-linejoin="round" stroke="rgb(0%, 0%, 0%)" stroke-opacity="1" stroke-miterlimit="10" d="M 99.441406 136.851562 C 99.441406 139.460938 95.53125 139.460938 95.53125 136.851562 C 95.53125 134.246094 99.441406 134.246094 99.441406 136.851562 "/>
<path fill-rule="nonzero" fill="rgb(0%, 0%, 0%)" fill-opacity="1" stroke-width="0.708661" stroke-linecap="round" stroke-linejoin="round" stroke="rgb(0%, 0%, 0%)" stroke-opacity="1" stroke-miterlimit="10" d="M 114.160156 135.171875 C 114.160156 137.777344 110.25 137.777344 110.25 135.171875 C 110.25 132.566406 114.160156 132.566406 114.160156 135.171875 "/>
<path fill-rule="nonzero" fill="rgb(0%, 0%, 0%)" fill-opacity="1" stroke-width="0.708661" stroke-linecap="round" stroke-linejoin="round" stroke="rgb(0%, 0%, 0%)" stroke-opacity="1" stroke-miterlimit="10" d="M 125.179688 134.253906 C 125.179688 136.863281 121.269531 136.863281 121.269531 134.253906 C 121.269531 131.648438 125.179688 131.648438 125.179688 134.253906 "/>
<path fill-rule="nonzero" fill="rgb(0%, 0%, 0%)" fill-opacity="1" stroke-width="0.708661" stroke-linecap="round" stroke-linejoin="round" stroke="rgb(0%, 0%, 0%)" stroke-opacity="1" stroke-miterlimit="10" d="M 134.363281 125.910156 C 134.363281 128.515625 130.453125 128.515625 130.453125 125.910156 C 130.453125 123.304688 134.363281 123.304688 134.363281 125.910156 "/>
<path fill-rule="nonzero" fill="rgb(0%, 0%, 0%)" fill-opacity="1" stroke-width="0.708661" stroke-linecap="round" stroke-linejoin="round" stroke="rgb(0%, 0%, 0%)" stroke-opacity="1" stroke-miterlimit="10" d="M 142.472656 125.304688 C 142.472656 127.910156 138.5625 127.910156 138.5625 125.304688 C 138.5625 122.695312 142.472656 122.695312 142.472656 125.304688 "/>
<path fill-rule="nonzero" fill="rgb(0%, 0%, 0%)" fill-opacity="1" stroke-width="0.708661" stroke-linecap="round" stroke-linejoin="round" stroke="rgb(0%, 0%, 0%)" stroke-opacity="1" stroke-miterlimit="10" d="M 149.910156 120.695312 C 149.910156 123.300781 146.003906 123.300781 146.003906 120.695312 C 146.003906 118.089844 149.910156 118.089844 149.910156 120.695312 "/>
<path fill-rule="nonzero" fill="rgb(0%, 0%, 0%)" fill-opacity="1" stroke-width="0.708661" stroke-linecap="round" stroke-linejoin="round" stroke="rgb(0%, 0%, 0%)" stroke-opacity="1" stroke-miterlimit="10" d="M 156.925781 119.113281 C 156.925781 121.71875 153.015625 121.71875 153.015625 119.113281 C 153.015625 116.507812 156.925781 116.507812 156.925781 119.113281 "/>
<path fill-rule="nonzero" fill="rgb(0%, 0%, 0%)" fill-opacity="1" stroke-width="0.708661" stroke-linecap="round" stroke-linejoin="round" stroke="rgb(0%, 0%, 0%)" stroke-opacity="1" stroke-miterlimit="10" d="M 163.6875 112.863281 C 163.6875 115.46875 159.777344 115.46875 159.777344 112.863281 C 159.777344 110.253906 163.6875 110.253906 163.6875 112.863281 "/>
<path fill-rule="nonzero" fill="rgb(0%, 0%, 0%)" fill-opacity="1" stroke-width="0.708661" stroke-linecap="round" stroke-linejoin="round" stroke="rgb(0%, 0%, 0%)" stroke-opacity="1" stroke-miterlimit="10" d="M 170.328125 112.449219 C 170.328125 115.054688 166.417969 115.054688 166.417969 112.449219 C 166.417969 109.84375 170.328125 109.84375 170.328125 112.449219 "/>
<path fill-rule="nonzero" fill="rgb(0%, 0%, 0%)" fill-opacity="1" stroke-width="0.708661" stroke-linecap="round" stroke-linejoin="round" stroke="rgb(0%, 0%, 0%)" stroke-opacity="1" stroke-miterlimit="10" d="M 176.96875 112.253906 C 176.96875 114.863281 173.058594 114.863281 173.058594 112.253906 C 173.058594 109.648438 176.96875 109.648438 176.96875 112.253906 "/>
<path fill-rule="nonzero" fill="rgb(0%, 0%, 0%)" fill-opacity="1" stroke-width="0.708661" stroke-linecap="round" stroke-linejoin="round" stroke="rgb(0%, 0%, 0%)" stroke-opacity="1" stroke-miterlimit="10" d="M 183.730469 107.964844 C 183.730469 110.574219 179.820312 110.574219 179.820312 107.964844 C 179.820312 105.359375 183.730469 105.359375 183.730469 107.964844 "/>
<path fill-rule="nonzero" fill="rgb(0%, 0%, 0%)" fill-opacity="1" stroke-width="0.708661" stroke-linecap="round" stroke-linejoin="round" stroke="rgb(0%, 0%, 0%)" stroke-opacity="1" stroke-miterlimit="10" d="M 190.746094 106.003906 C 190.746094 108.609375 186.835938 108.609375 186.835938 106.003906 C 186.835938 103.398438 190.746094 103.398438 190.746094 106.003906 "/>
<path fill-rule="nonzero" fill="rgb(0%, 0%, 0%)" fill-opacity="1" stroke-width="0.708661" stroke-linecap="round" stroke-linejoin="round" stroke="rgb(0%, 0%, 0%)" stroke-opacity="1" stroke-miterlimit="10" d="M 198.183594 100.316406 C 198.183594 102.921875 194.273438 102.921875 194.273438 100.316406 C 194.273438 97.710938 198.183594 97.710938 198.183594 100.316406 "/>
<path fill-rule="nonzero" fill="rgb(0%, 0%, 0%)" fill-opacity="1" stroke-width="0.708661" stroke-linecap="round" stroke-linejoin="round" stroke="rgb(0%, 0%, 0%)" stroke-opacity="1" stroke-miterlimit="10" d="M 206.292969 98.613281 C 206.292969 101.21875 202.382812 101.21875 202.382812 98.613281 C 202.382812 96.003906 206.292969 96.003906 206.292969 98.613281 "/>
<path fill-rule="nonzero" fill="rgb(0%, 0%, 0%)" fill-opacity="1" stroke-width="0.708661" stroke-linecap="round" stroke-linejoin="round" stroke="rgb(0%, 0%, 0%)" stroke-opacity="1" stroke-miterlimit="10" d="M 215.476562 96.019531 C 215.476562 98.625 211.566406 98.625 211.566406 96.019531 C 211.566406 93.410156 215.476562 93.410156 215.476562 96.019531 "/>
<path fill-rule="nonzero" fill="rgb(0%, 0%, 0%)" fill-opacity="1" stroke-width="0.708661" stroke-linecap="round" stroke-linejoin="round" stroke="rgb(0%, 0%, 0%)" stroke-opacity="1" stroke-miterlimit="10" d="M 226.496094 79.28125 C 226.496094 81.890625 222.585938 81.890625 222.585938 79.28125 C 222.585938 76.675781 226.496094 76.675781 226.496094 79.28125 "/>
<path fill-rule="nonzero" fill="rgb(0%, 0%, 0%)" fill-opacity="1" stroke-width="0.708661" stroke-linecap="round" stroke-linejoin="round" stroke="rgb(0%, 0%, 0%)" stroke-opacity="1" stroke-miterlimit="10" d="M 241.214844 78.894531 C 241.214844 81.5 237.304688 81.5 237.304688 78.894531 C 237.304688 76.289062 241.214844 76.289062 241.214844 78.894531 "/>
<path fill-rule="nonzero" fill="rgb(0%, 0%, 0%)" fill-opacity="1" stroke-width="0.708661" stroke-linecap="round" stroke-linejoin="round" stroke="rgb(0%, 0%, 0%)" stroke-opacity="1" stroke-miterlimit="10" d="M 267.605469 78.878906 C 267.605469 81.488281 263.695312 81.488281 263.695312 78.878906 C 263.695312 76.273438 267.605469 76.273438 267.605469 78.878906 "/>
<g clip-path="url(#clip-11)">
<path fill="none" stroke-width="1.066978" stroke-linecap="butt" stroke-linejoin="round" stroke="rgb(0%, 0%, 0%)" stroke-opacity="1" stroke-miterlimit="10" d="M -156.292969 237.878906 L 493.042969 -12.8125 "/>
</g>
<g clip-path="url(#clip-12)">
<path fill-rule="nonzero" fill="rgb(100%, 100%, 100%)" fill-opacity="1" stroke-width="1.066978" stroke-linecap="round" stroke-linejoin="round" stroke="rgb(100%, 100%, 100%)" stroke-opacity="1" stroke-miterlimit="10" d="M 282.074219 161.847656 L 498.519531 161.847656 L 498.519531 36.246094 L 282.074219 36.246094 Z M 282.074219 161.847656 "/>
</g>
<g clip-path="url(#clip-13)">
<path fill="none" stroke-width="1.066978" stroke-linecap="butt" stroke-linejoin="round" stroke="rgb(80%, 80%, 80%)" stroke-opacity="1" stroke-miterlimit="10" d="M 282.074219 148.25 L 498.519531 148.25 "/>
</g>
<g clip-path="url(#clip-14)">
<path fill="none" stroke-width="1.066978" stroke-linecap="butt" stroke-linejoin="round" stroke="rgb(80%, 80%, 80%)" stroke-opacity="1" stroke-miterlimit="10" d="M 282.074219 123.316406 L 498.519531 123.316406 "/>
</g>
<g clip-path="url(#clip-15)">
<path fill="none" stroke-width="1.066978" stroke-linecap="butt" stroke-linejoin="round" stroke="rgb(80%, 80%, 80%)" stroke-opacity="1" stroke-miterlimit="10" d="M 282.074219 98.386719 L 498.519531 98.386719 "/>
</g>
<g clip-path="url(#clip-16)">
<path fill="none" stroke-width="1.066978" stroke-linecap="butt" stroke-linejoin="round" stroke="rgb(80%, 80%, 80%)" stroke-opacity="1" stroke-miterlimit="10" d="M 282.074219 73.453125 L 498.519531 73.453125 "/>
</g>
<g clip-path="url(#clip-17)">
<path fill="none" stroke-width="1.066978" stroke-linecap="butt" stroke-linejoin="round" stroke="rgb(80%, 80%, 80%)" stroke-opacity="1" stroke-miterlimit="10" d="M 282.074219 48.519531 L 498.519531 48.519531 "/>
</g>
<g clip-path="url(#clip-18)">
<path fill="none" stroke-width="1.066978" stroke-linecap="butt" stroke-linejoin="round" stroke="rgb(80%, 80%, 80%)" stroke-opacity="1" stroke-miterlimit="10" d="M 289.902344 161.847656 L 289.902344 36.246094 "/>
</g>
<g clip-path="url(#clip-19)">
<path fill="none" stroke-width="1.066978" stroke-linecap="butt" stroke-linejoin="round" stroke="rgb(80%, 80%, 80%)" stroke-opacity="1" stroke-miterlimit="10" d="M 340.101562 161.847656 L 340.101562 36.246094 "/>
</g>
<g clip-path="url(#clip-20)">
<path fill="none" stroke-width="1.066978" stroke-linecap="butt" stroke-linejoin="round" stroke="rgb(80%, 80%, 80%)" stroke-opacity="1" stroke-miterlimit="10" d="M 390.296875 161.847656 L 390.296875 36.246094 "/>
</g>
<g clip-path="url(#clip-21)">
<path fill="none" stroke-width="1.066978" stroke-linecap="butt" stroke-linejoin="round" stroke="rgb(80%, 80%, 80%)" stroke-opacity="1" stroke-miterlimit="10" d="M 440.496094 161.847656 L 440.496094 36.246094 "/>
</g>
<g clip-path="url(#clip-22)">
<path fill="none" stroke-width="1.066978" stroke-linecap="butt" stroke-linejoin="round" stroke="rgb(80%, 80%, 80%)" stroke-opacity="1" stroke-miterlimit="10" d="M 490.691406 161.847656 L 490.691406 36.246094 "/>
</g>
<path fill-rule="nonzero" fill="rgb(0%, 0%, 0%)" fill-opacity="1" stroke-width="0.708661" stroke-linecap="round" stroke-linejoin="round" stroke="rgb(0%, 0%, 0%)" stroke-opacity="1" stroke-miterlimit="10" d="M 293.867188 131.394531 C 293.867188 134 289.957031 134 289.957031 131.394531 C 289.957031 128.789062 293.867188 128.789062 293.867188 131.394531 "/>
<path fill-rule="nonzero" fill="rgb(0%, 0%, 0%)" fill-opacity="1" stroke-width="0.708661" stroke-linecap="round" stroke-linejoin="round" stroke="rgb(0%, 0%, 0%)" stroke-opacity="1" stroke-miterlimit="10" d="M 319.992188 127.070312 C 319.992188 129.675781 316.082031 129.675781 316.082031 127.070312 C 316.082031 124.464844 319.992188 124.464844 319.992188 127.070312 "/>
<path fill-rule="nonzero" fill="rgb(0%, 0%, 0%)" fill-opacity="1" stroke-width="0.708661" stroke-linecap="round" stroke-linejoin="round" stroke="rgb(0%, 0%, 0%)" stroke-opacity="1" stroke-miterlimit="10" d="M 334.507812 126.894531 C 334.507812 129.5 330.597656 129.5 330.597656 126.894531 C 330.597656 124.289062 334.507812 124.289062 334.507812 126.894531 "/>
<path fill-rule="nonzero" fill="rgb(0%, 0%, 0%)" fill-opacity="1" stroke-width="0.708661" stroke-linecap="round" stroke-linejoin="round" stroke="rgb(0%, 0%, 0%)" stroke-opacity="1" stroke-miterlimit="10" d="M 345.339844 126.703125 C 345.339844 129.308594 341.429688 129.308594 341.429688 126.703125 C 341.429688 124.097656 345.339844 124.097656 345.339844 126.703125 "/>
<path fill-rule="nonzero" fill="rgb(0%, 0%, 0%)" fill-opacity="1" stroke-width="0.708661" stroke-linecap="round" stroke-linejoin="round" stroke="rgb(0%, 0%, 0%)" stroke-opacity="1" stroke-miterlimit="10" d="M 354.332031 124.488281 C 354.332031 127.09375 350.421875 127.09375 350.421875 124.488281 C 350.421875 121.882812 354.332031 121.882812 354.332031 124.488281 "/>
<path fill-rule="nonzero" fill="rgb(0%, 0%, 0%)" fill-opacity="1" stroke-width="0.708661" stroke-linecap="round" stroke-linejoin="round" stroke="rgb(0%, 0%, 0%)" stroke-opacity="1" stroke-miterlimit="10" d="M 362.246094 116.765625 C 362.246094 119.371094 358.335938 119.371094 358.335938 116.765625 C 358.335938 114.15625 362.246094 114.15625 362.246094 116.765625 "/>
<path fill-rule="nonzero" fill="rgb(0%, 0%, 0%)" fill-opacity="1" stroke-width="0.708661" stroke-linecap="round" stroke-linejoin="round" stroke="rgb(0%, 0%, 0%)" stroke-opacity="1" stroke-miterlimit="10" d="M 369.476562 114.546875 C 369.476562 117.152344 365.566406 117.152344 365.566406 114.546875 C 365.566406 111.941406 369.476562 111.941406 369.476562 114.546875 "/>
<path fill-rule="nonzero" fill="rgb(0%, 0%, 0%)" fill-opacity="1" stroke-width="0.708661" stroke-linecap="round" stroke-linejoin="round" stroke="rgb(0%, 0%, 0%)" stroke-opacity="1" stroke-miterlimit="10" d="M 376.257812 107.230469 C 376.257812 109.835938 372.347656 109.835938 372.347656 107.230469 C 372.347656 104.625 376.257812 104.625 376.257812 107.230469 "/>
<path fill-rule="nonzero" fill="rgb(0%, 0%, 0%)" fill-opacity="1" stroke-width="0.708661" stroke-linecap="round" stroke-linejoin="round" stroke="rgb(0%, 0%, 0%)" stroke-opacity="1" stroke-miterlimit="10" d="M 382.757812 106.566406 C 382.757812 109.175781 378.851562 109.175781 378.851562 106.566406 C 378.851562 103.960938 382.757812 103.960938 382.757812 106.566406 "/>
<path fill-rule="nonzero" fill="rgb(0%, 0%, 0%)" fill-opacity="1" stroke-width="0.708661" stroke-linecap="round" stroke-linejoin="round" stroke="rgb(0%, 0%, 0%)" stroke-opacity="1" stroke-miterlimit="10" d="M 389.105469 104.132812 C 389.105469 106.738281 385.195312 106.738281 385.195312 104.132812 C 385.195312 101.523438 389.105469 101.523438 389.105469 104.132812 "/>
<path fill-rule="nonzero" fill="rgb(0%, 0%, 0%)" fill-opacity="1" stroke-width="0.708661" stroke-linecap="round" stroke-linejoin="round" stroke="rgb(0%, 0%, 0%)" stroke-opacity="1" stroke-miterlimit="10" d="M 395.402344 99.574219 C 395.402344 102.179688 391.492188 102.179688 391.492188 99.574219 C 391.492188 96.96875 395.402344 96.96875 395.402344 99.574219 "/>
<path fill-rule="nonzero" fill="rgb(0%, 0%, 0%)" fill-opacity="1" stroke-width="0.708661" stroke-linecap="round" stroke-linejoin="round" stroke="rgb(0%, 0%, 0%)" stroke-opacity="1" stroke-miterlimit="10" d="M 401.746094 93.550781 C 401.746094 96.15625 397.835938 96.15625 397.835938 93.550781 C 397.835938 90.941406 401.746094 90.941406 401.746094 93.550781 "/>
<path fill-rule="nonzero" fill="rgb(0%, 0%, 0%)" fill-opacity="1" stroke-width="0.708661" stroke-linecap="round" stroke-linejoin="round" stroke="rgb(0%, 0%, 0%)" stroke-opacity="1" stroke-miterlimit="10" d="M 408.246094 93.023438 C 408.246094 95.628906 404.335938 95.628906 404.335938 93.023438 C 404.335938 90.417969 408.246094 90.417969 408.246094 93.023438 "/>
<path fill-rule="nonzero" fill="rgb(0%, 0%, 0%)" fill-opacity="1" stroke-width="0.708661" stroke-linecap="round" stroke-linejoin="round" stroke="rgb(0%, 0%, 0%)" stroke-opacity="1" stroke-miterlimit="10" d="M 415.03125 90.796875 C 415.03125 93.402344 411.121094 93.402344 411.121094 90.796875 C 411.121094 88.1875 415.03125 88.1875 415.03125 90.796875 "/>
<path fill-rule="nonzero" fill="rgb(0%, 0%, 0%)" fill-opacity="1" stroke-width="0.708661" stroke-linecap="round" stroke-linejoin="round" stroke="rgb(0%, 0%, 0%)" stroke-opacity="1" stroke-miterlimit="10" d="M 422.257812 80.675781 C 422.257812 83.28125 418.347656 83.28125 418.347656 80.675781 C 418.347656 78.070312 422.257812 78.070312 422.257812 80.675781 "/>
<path fill-rule="nonzero" fill="rgb(0%, 0%, 0%)" fill-opacity="1" stroke-width="0.708661" stroke-linecap="round" stroke-linejoin="round" stroke="rgb(0%, 0%, 0%)" stroke-opacity="1" stroke-miterlimit="10" d="M 430.171875 75.578125 C 430.171875 78.183594 426.261719 78.183594 426.261719 75.578125 C 426.261719 72.972656 430.171875 72.972656 430.171875 75.578125 "/>
<path fill-rule="nonzero" fill="rgb(0%, 0%, 0%)" fill-opacity="1" stroke-width="0.708661" stroke-linecap="round" stroke-linejoin="round" stroke="rgb(0%, 0%, 0%)" stroke-opacity="1" stroke-miterlimit="10" d="M 439.167969 71.121094 C 439.167969 73.726562 435.257812 73.726562 435.257812 71.121094 C 435.257812 68.511719 439.167969 68.511719 439.167969 71.121094 "/>
<path fill-rule="nonzero" fill="rgb(0%, 0%, 0%)" fill-opacity="1" stroke-width="0.708661" stroke-linecap="round" stroke-linejoin="round" stroke="rgb(0%, 0%, 0%)" stroke-opacity="1" stroke-miterlimit="10" d="M 449.996094 63.183594 C 449.996094 65.789062 446.085938 65.789062 446.085938 63.183594 C 446.085938 60.578125 449.996094 60.578125 449.996094 63.183594 "/>
<path fill-rule="nonzero" fill="rgb(0%, 0%, 0%)" fill-opacity="1" stroke-width="0.708661" stroke-linecap="round" stroke-linejoin="round" stroke="rgb(0%, 0%, 0%)" stroke-opacity="1" stroke-miterlimit="10" d="M 464.511719 59.34375 C 464.511719 61.949219 460.601562 61.949219 460.601562 59.34375 C 460.601562 56.734375 464.511719 56.734375 464.511719 59.34375 "/>
<path fill-rule="nonzero" fill="rgb(0%, 0%, 0%)" fill-opacity="1" stroke-width="0.708661" stroke-linecap="round" stroke-linejoin="round" stroke="rgb(0%, 0%, 0%)" stroke-opacity="1" stroke-miterlimit="10" d="M 490.636719 56.414062 C 490.636719 59.019531 486.726562 59.019531 486.726562 56.414062 C 486.726562 53.808594 490.636719 53.808594 490.636719 56.414062 "/>
<g clip-path="url(#clip-23)">
<path fill="none" stroke-width="1.066978" stroke-linecap="butt" stroke-linejoin="round" stroke="rgb(0%, 0%, 0%)" stroke-opacity="1" stroke-miterlimit="10" d="M 65.628906 287.453125 L 714.964844 -89.355469 "/>
</g>
<g fill="rgb(10.196078%, 10.196078%, 10.196078%)" fill-opacity="1">
<use xlink:href="#glyph-0-1" x="135.875" y="28.439453"/>
<use xlink:href="#glyph-0-2" x="151.875" y="28.439453"/>
<use xlink:href="#glyph-0-3" x="163.875" y="28.439453"/>
<use xlink:href="#glyph-0-3" x="176.875" y="28.439453"/>
<use xlink:href="#glyph-0-4" x="189.875" y="28.439453"/>
</g>
<g fill="rgb(10.196078%, 10.196078%, 10.196078%)" fill-opacity="1">
<use xlink:href="#glyph-0-5" x="345.296875" y="28.439453"/>
<use xlink:href="#glyph-0-6" x="360.296875" y="28.439453"/>
<use xlink:href="#glyph-0-7" x="373.296875" y="28.439453"/>
<use xlink:href="#glyph-0-2" x="386.296875" y="28.439453"/>
<use xlink:href="#glyph-0-3" x="398.296875" y="28.439453"/>
<use xlink:href="#glyph-0-3" x="411.296875" y="28.439453"/>
<use xlink:href="#glyph-0-4" x="424.296875" y="28.439453"/>
</g>
<path fill="none" stroke-width="1.066978" stroke-linecap="butt" stroke-linejoin="round" stroke="rgb(80%, 80%, 80%)" stroke-opacity="1" stroke-miterlimit="10" d="M 67.980469 164.589844 L 67.980469 161.847656 "/>
<path fill="none" stroke-width="1.066978" stroke-linecap="butt" stroke-linejoin="round" stroke="rgb(80%, 80%, 80%)" stroke-opacity="1" stroke-miterlimit="10" d="M 118.175781 164.589844 L 118.175781 161.847656 "/>
<path fill="none" stroke-width="1.066978" stroke-linecap="butt" stroke-linejoin="round" stroke="rgb(80%, 80%, 80%)" stroke-opacity="1" stroke-miterlimit="10" d="M 168.375 164.589844 L 168.375 161.847656 "/>
<path fill="none" stroke-width="1.066978" stroke-linecap="butt" stroke-linejoin="round" stroke="rgb(80%, 80%, 80%)" stroke-opacity="1" stroke-miterlimit="10" d="M 218.570312 164.589844 L 218.570312 161.847656 "/>
<path fill="none" stroke-width="1.066978" stroke-linecap="butt" stroke-linejoin="round" stroke="rgb(80%, 80%, 80%)" stroke-opacity="1" stroke-miterlimit="10" d="M 268.765625 164.589844 L 268.765625 161.847656 "/>
<g fill="rgb(40%, 40%, 40%)" fill-opacity="1">
<use xlink:href="#glyph-1-1" x="59.480469" y="180.285156"/>
<use xlink:href="#glyph-1-2" x="66.480469" y="180.285156"/>
</g>
<g fill="rgb(40%, 40%, 40%)" fill-opacity="1">
<use xlink:href="#glyph-1-1" x="109.675781" y="180.285156"/>
<use xlink:href="#glyph-1-3" x="116.675781" y="180.285156"/>
</g>
<g fill="rgb(40%, 40%, 40%)" fill-opacity="1">
<use xlink:href="#glyph-1-4" x="163.375" y="180.285156"/>
</g>
<g fill="rgb(40%, 40%, 40%)" fill-opacity="1">
<use xlink:href="#glyph-1-3" x="213.570312" y="180.285156"/>
</g>
<g fill="rgb(40%, 40%, 40%)" fill-opacity="1">
<use xlink:href="#glyph-1-2" x="263.765625" y="180.285156"/>
</g>
<path fill="none" stroke-width="1.066978" stroke-linecap="butt" stroke-linejoin="round" stroke="rgb(80%, 80%, 80%)" stroke-opacity="1" stroke-miterlimit="10" d="M 289.902344 164.589844 L 289.902344 161.847656 "/>
<path fill="none" stroke-width="1.066978" stroke-linecap="butt" stroke-linejoin="round" stroke="rgb(80%, 80%, 80%)" stroke-opacity="1" stroke-miterlimit="10" d="M 340.101562 164.589844 L 340.101562 161.847656 "/>
<path fill="none" stroke-width="1.066978" stroke-linecap="butt" stroke-linejoin="round" stroke="rgb(80%, 80%, 80%)" stroke-opacity="1" stroke-miterlimit="10" d="M 390.296875 164.589844 L 390.296875 161.847656 "/>
<path fill="none" stroke-width="1.066978" stroke-linecap="butt" stroke-linejoin="round" stroke="rgb(80%, 80%, 80%)" stroke-opacity="1" stroke-miterlimit="10" d="M 440.496094 164.589844 L 440.496094 161.847656 "/>
<path fill="none" stroke-width="1.066978" stroke-linecap="butt" stroke-linejoin="round" stroke="rgb(80%, 80%, 80%)" stroke-opacity="1" stroke-miterlimit="10" d="M 490.691406 164.589844 L 490.691406 161.847656 "/>
<g fill="rgb(40%, 40%, 40%)" fill-opacity="1">
<use xlink:href="#glyph-1-1" x="281.402344" y="180.285156"/>
<use xlink:href="#glyph-1-2" x="288.402344" y="180.285156"/>
</g>
<g fill="rgb(40%, 40%, 40%)" fill-opacity="1">
<use xlink:href="#glyph-1-1" x="331.601562" y="180.285156"/>
<use xlink:href="#glyph-1-3" x="338.601562" y="180.285156"/>
</g>
<g fill="rgb(40%, 40%, 40%)" fill-opacity="1">
<use xlink:href="#glyph-1-4" x="385.296875" y="180.285156"/>
</g>
<g fill="rgb(40%, 40%, 40%)" fill-opacity="1">
<use xlink:href="#glyph-1-3" x="435.496094" y="180.285156"/>
</g>
<g fill="rgb(40%, 40%, 40%)" fill-opacity="1">
<use xlink:href="#glyph-1-2" x="485.691406" y="180.285156"/>
</g>
<g fill="rgb(40%, 40%, 40%)" fill-opacity="1">
<use xlink:href="#glyph-1-4" x="30.21875" y="154.753906"/>
<use xlink:href="#glyph-1-5" x="40.21875" y="154.753906"/>
<use xlink:href="#glyph-1-4" x="45.21875" y="154.753906"/>
</g>
<g fill="rgb(40%, 40%, 40%)" fill-opacity="1">
<use xlink:href="#glyph-1-4" x="30.21875" y="129.820312"/>
<use xlink:href="#glyph-1-5" x="40.21875" y="129.820312"/>
<use xlink:href="#glyph-1-3" x="45.21875" y="129.820312"/>
</g>
<g fill="rgb(40%, 40%, 40%)" fill-opacity="1">
<use xlink:href="#glyph-1-4" x="30.21875" y="104.890625"/>
<use xlink:href="#glyph-1-5" x="40.21875" y="104.890625"/>
<use xlink:href="#glyph-1-2" x="45.21875" y="104.890625"/>
</g>
<g fill="rgb(40%, 40%, 40%)" fill-opacity="1">
<use xlink:href="#glyph-1-4" x="30.21875" y="79.957031"/>
<use xlink:href="#glyph-1-5" x="40.21875" y="79.957031"/>
<use xlink:href="#glyph-1-6" x="45.21875" y="79.957031"/>
</g>
<g fill="rgb(40%, 40%, 40%)" fill-opacity="1">
<use xlink:href="#glyph-1-4" x="30.21875" y="55.023438"/>
<use xlink:href="#glyph-1-5" x="40.21875" y="55.023438"/>
<use xlink:href="#glyph-1-7" x="45.21875" y="55.023438"/>
</g>
<path fill="none" stroke-width="1.066978" stroke-linecap="butt" stroke-linejoin="round" stroke="rgb(80%, 80%, 80%)" stroke-opacity="1" stroke-miterlimit="10" d="M 57.410156 148.25 L 60.152344 148.25 "/>
<path fill="none" stroke-width="1.066978" stroke-linecap="butt" stroke-linejoin="round" stroke="rgb(80%, 80%, 80%)" stroke-opacity="1" stroke-miterlimit="10" d="M 57.410156 123.316406 L 60.152344 123.316406 "/>
<path fill="none" stroke-width="1.066978" stroke-linecap="butt" stroke-linejoin="round" stroke="rgb(80%, 80%, 80%)" stroke-opacity="1" stroke-miterlimit="10" d="M 57.410156 98.386719 L 60.152344 98.386719 "/>
<path fill="none" stroke-width="1.066978" stroke-linecap="butt" stroke-linejoin="round" stroke="rgb(80%, 80%, 80%)" stroke-opacity="1" stroke-miterlimit="10" d="M 57.410156 73.453125 L 60.152344 73.453125 "/>
<path fill="none" stroke-width="1.066978" stroke-linecap="butt" stroke-linejoin="round" stroke="rgb(80%, 80%, 80%)" stroke-opacity="1" stroke-miterlimit="10" d="M 57.410156 48.519531 L 60.152344 48.519531 "/>
<g fill="rgb(5.882353%, 29.803922%, 50.588235%)" fill-opacity="1">
<use xlink:href="#glyph-0-8" x="173.335938" y="204.095703"/>
<use xlink:href="#glyph-0-7" x="186.335938" y="204.095703"/>
<use xlink:href="#glyph-0-9" x="199.335938" y="204.095703"/>
<use xlink:href="#glyph-0-10" x="211.335938" y="204.095703"/>
<use xlink:href="#glyph-0-11" x="224.335938" y="204.095703"/>
<use xlink:href="#glyph-0-9" x="232.335938" y="204.095703"/>
<use xlink:href="#glyph-0-12" x="244.335938" y="204.095703"/>
<use xlink:href="#glyph-0-13" x="252.335938" y="204.095703"/>
<use xlink:href="#glyph-0-14" x="258.335938" y="204.095703"/>
<use xlink:href="#glyph-0-2" x="269.335938" y="204.095703"/>
<use xlink:href="#glyph-0-15" x="281.335938" y="204.095703"/>
<use xlink:href="#glyph-0-16" x="287.335938" y="204.095703"/>
<use xlink:href="#glyph-0-17" x="292.335938" y="204.095703"/>
<use xlink:href="#glyph-0-18" x="305.335938" y="204.095703"/>
<use xlink:href="#glyph-0-2" x="318.335938" y="204.095703"/>
<use xlink:href="#glyph-0-6" x="330.335938" y="204.095703"/>
<use xlink:href="#glyph-0-12" x="343.335938" y="204.095703"/>
<use xlink:href="#glyph-0-13" x="351.335938" y="204.095703"/>
<use xlink:href="#glyph-0-15" x="357.335938" y="204.095703"/>
<use xlink:href="#glyph-0-9" x="363.335938" y="204.095703"/>
<use xlink:href="#glyph-0-19" x="375.335938" y="204.095703"/>
</g>
<g fill="rgb(5.882353%, 29.803922%, 50.588235%)" fill-opacity="1">
<use xlink:href="#glyph-2-1" x="21.056641" y="186.046875"/>
<use xlink:href="#glyph-2-2" x="21.056641" y="173.046875"/>
<use xlink:href="#glyph-2-3" x="21.056641" y="161.046875"/>
<use xlink:href="#glyph-2-4" x="21.056641" y="141.046875"/>
<use xlink:href="#glyph-2-5" x="21.056641" y="128.046875"/>
<use xlink:href="#glyph-2-6" x="21.056641" y="122.046875"/>
<use xlink:href="#glyph-2-7" x="21.056641" y="110.046875"/>
<use xlink:href="#glyph-2-8" x="21.056641" y="105.046875"/>
<use xlink:href="#glyph-2-9" x="21.056641" y="92.046875"/>
<use xlink:href="#glyph-2-2" x="21.056641" y="79.046875"/>
<use xlink:href="#glyph-2-10" x="21.056641" y="67.046875"/>
<use xlink:href="#glyph-2-11" x="21.056641" y="54.046875"/>
<use xlink:href="#glyph-2-12" x="21.056641" y="46.046875"/>
<use xlink:href="#glyph-2-5" x="21.056641" y="40.046875"/>
<use xlink:href="#glyph-2-6" x="21.056641" y="34.046875"/>
<use xlink:href="#glyph-2-13" x="21.056641" y="22.046875"/>
</g>
</svg>
